<?xml version="1.0" encoding="UTF-8" standalone="no"?>
<!-- Created with Inkscape (http://www.inkscape.org/) -->

<svg
   width="200"
   height="200"
   viewBox="0 0 52.916665 52.916668"
   version="1.1"
   id="svg4661"
   inkscape:version="1.1 (c68e22c387, 2021-05-23)"
   sodipodi:docname="fugir.svg"
   xmlns:inkscape="http://www.inkscape.org/namespaces/inkscape"
   xmlns:sodipodi="http://sodipodi.sourceforge.net/DTD/sodipodi-0.dtd"
   xmlns="http://www.w3.org/2000/svg"
   xmlns:svg="http://www.w3.org/2000/svg">
  <sodipodi:namedview
     id="namedview4663"
     pagecolor="#ffffff"
     bordercolor="#666666"
     borderopacity="1.0"
     inkscape:pageshadow="2"
     inkscape:pageopacity="0.0"
     inkscape:pagecheckerboard="0"
     inkscape:document-units="mm"
     showgrid="false"
     units="px"
     inkscape:zoom="2.096401"
     inkscape:cx="31.959535"
     inkscape:cy="109.95034"
     inkscape:window-width="1920"
     inkscape:window-height="1017"
     inkscape:window-x="-8"
     inkscape:window-y="-8"
     inkscape:window-maximized="1"
     inkscape:current-layer="layer1" />
  <defs
     id="defs4658" />
  <g
     inkscape:label="Camada 1"
     inkscape:groupmode="layer"
     id="layer1">
    <g
       id="g8538"
       transform="translate(0.60711128,-2.5768781)">
      <circle
         style="fill:#fff;stroke:none;stroke-width:0.294698;-inkscape-stroke:none;stop-color:#000000"
         id="path4744"
         cx="38.965397"
         cy="18.225643"
         r="3.4804688" />
      <rect
         style="fill:#fff;stroke:none;stroke-width:0.354629;-inkscape-stroke:none;stop-color:#000000"
         id="rect4792"
         width="21.983038"
         height="1.8141676"
         x="12.133284"
         y="18.434095"
         ry="0.90708381" />
      <g
         id="rect4792-8-7"
         transform="rotate(50.395507,3.6196135,14.088196)"
         style="stroke:none">
        <path
           style="color:#000000;fill:#fff;stroke:none;stroke-width:0.190945;-inkscape-stroke:none"
           d="m 37.247022,-6.8904572 h 4.01274 c 0.537862,0 0.970869,0.4330074 0.970869,0.9708686 0,0.5378611 -0.433007,0.9708685 -0.970869,0.9708685 h -4.01274 c -0.537861,0 -0.970868,-0.4330074 -0.970868,-0.9708685 0,-0.5378612 0.433007,-0.9708686 0.970868,-0.9708686 z"
           id="path5298" />
        <path
           style="color:#000000;fill:#fff;stroke:none;-inkscape-stroke:none"
           d="m 37.246094,-6.9863281 c -2.652325,0 -1.300351,0.4124311 -1.040152,1.0720341 0.216175,0.5480038 0.451051,1.0607784 1.040152,1.0607784 h 4.013672 c 0.589101,0 1.066406,-0.4773053 1.066406,-1.0664063 0,-0.5891009 -0.477305,-1.0664062 -1.066406,-1.0664062 z m 0,0.1914062 h 4.013672 c 0.48662,0 0.875,0.3883797 0.875,0.875 0,0.4866203 -0.389203,0.9032876 -0.875,0.875 l -4.091637,-0.2382533 c -0.485798,-0.028288 -0.797035,-0.1501264 -0.797035,-0.6367467 0,-0.4866203 0.388379,-0.875 0.875,-0.875 z"
           id="path5300"
           sodipodi:nodetypes="ssssssssssssss" />
      </g>
      <rect
         style="fill:#fff;stroke:none;stroke-width:0.216936;-inkscape-stroke:none;stop-color:#000000"
         id="rect4792-8-1-6"
         width="7.79006"
         height="1.9157465"
         x="7.7545466"
         y="50.992577"
         ry="0.95787323"
         transform="rotate(-45.408443)" />
      <rect
         style="fill:#fff;stroke:none;stroke-width:0.327245;-inkscape-stroke:none;stop-color:#000000"
         id="rect4792-3"
         width="18.44071"
         height="1.841552"
         x="6.0064602"
         y="23.194889"
         ry="0.92077601" />
      <rect
         style="fill:#fff;stroke:none;stroke-width:0.327245;-inkscape-stroke:none;stop-color:#000000"
         id="rect4792-3-7"
         width="18.44071"
         height="1.841552"
         x="3.5076625"
         y="33.547058"
         ry="0.92077601" />
      <rect
         style="fill:#fff;stroke:none;stroke-width:0.246725;-inkscape-stroke:none;stop-color:#000000"
         id="rect4792-3-0"
         width="10.043165"
         height="1.9220724"
         x="9.6251545"
         y="28.687685"
         ry="0.96103621" />
      <rect
         style="fill:#fff;stroke:none;stroke-width:0.253713;-inkscape-stroke:none;stop-color:#000000"
         id="rect5064"
         width="7.5027213"
         height="14.443956"
         x="39.567554"
         y="2.3166583"
         ry="3.374192"
         rx="3.7513607"
         transform="matrix(0.88827926,0.45930378,-0.44491709,0.89557176,0,0)" />
      <path
         style="color:#000000;fill:#fff;stroke-width:0.294698;-inkscape-stroke:none"
         d="m 29.633613,34.434657 c 0.540842,0.58469 1.305116,0.434197 0.334302,1.813624 l -1.926089,2.736775 c -0.604663,0.859166 -1.783124,1.064054 -2.642289,0.45939 -0.859166,-0.604663 -1.064054,-1.783124 -0.45939,-2.64229 l 1.926088,-2.736776 c 1.562613,-2.220313 1.387681,-1.122277 2.183664,-0.261761 z"
         id="rect6620"
         sodipodi:nodetypes="ssssssss" />
      <rect
         style="fill:#fff;stroke:none;stroke-width:0.294698;-inkscape-stroke:none;stop-color:#000000"
         id="rect7784"
         width="4.1017718"
         height="10.285982"
         x="26.106297"
         y="42.003017"
         ry="1.8964089"
         transform="rotate(-15)" />
      <rect
         style="fill:#fff;stroke:none;stroke-width:0.294698;-inkscape-stroke:none;stop-color:#000000"
         id="rect7888"
         width="10.727711"
         height="3.4076257"
         x="15.632606"
         y="37.476414"
         ry="1.7038128"
         transform="rotate(-2.3873967)" />
      <rect
         style="fill:#fff;stroke:none;stroke-width:0.294698;-inkscape-stroke:none;stop-color:#000000"
         id="rect8072"
         width="10.486027"
         height="3.7481971"
         x="37.89201"
         y="21.313572"
         ry="1.2598797"
         transform="rotate(15.804886)" />
      <rect
         style="fill:#fff;stroke:none;stroke-width:0.294698;-inkscape-stroke:none;stop-color:#000000"
         id="rect8336"
         width="11.51232"
         height="2.4987979"
         x="26.203678"
         y="21.884598"
         ry="0.9578737" />
      <rect
         style="fill:#fff;stroke:none;stroke-width:0.294698;-inkscape-stroke:none;stop-color:#000000"
         id="rect8440"
         width="2.6772835"
         height="9.0135212"
         x="34.165325"
         y="4.1100121"
         ry="0.9578737"
         transform="rotate(31.913637)" />
    </g>
  </g>
</svg>
