<?xml version="1.0" encoding="UTF-8" standalone="no"?>
<!-- Created with Inkscape (http://www.inkscape.org/) -->

<svg
   width="200"
   height="200"
   viewBox="0 0 52.916666 52.916668"
   version="1.1"
   id="svg8564"
   inkscape:version="1.1 (c68e22c387, 2021-05-23)"
   sodipodi:docname="montante.svg"
   xmlns:inkscape="http://www.inkscape.org/namespaces/inkscape"
   xmlns:sodipodi="http://sodipodi.sourceforge.net/DTD/sodipodi-0.dtd"
   xmlns="http://www.w3.org/2000/svg"
   xmlns:svg="http://www.w3.org/2000/svg">
  <sodipodi:namedview
     id="namedview8566"
     pagecolor="#ffffff"
     bordercolor="#666666"
     borderopacity="1.0"
     inkscape:pageshadow="2"
     inkscape:pageopacity="0.0"
     inkscape:pagecheckerboard="0"
     inkscape:document-units="mm"
     showgrid="false"
     inkscape:zoom="5.9295175"
     inkscape:cx="82.468768"
     inkscape:cy="117.46318"
     inkscape:window-width="1920"
     inkscape:window-height="1017"
     inkscape:window-x="-8"
     inkscape:window-y="-8"
     inkscape:window-maximized="1"
     inkscape:current-layer="layer1"
     units="px" />
  <defs
     id="defs8561">
    <filter
       inkscape:label="Plasticine"
       inkscape:menu="Bumps"
       inkscape:menu-tooltip="Matte modeling paste emboss effect"
       style="color-interpolation-filters:sRGB"
       id="filter12338"
       x="-0.19208246"
       y="-0.07139729"
       width="1.3841649"
       height="1.1427946">
      <feGaussianBlur
         result="result3"
         stdDeviation="4"
         in="SourceGraphic"
         id="feGaussianBlur12314" />
      <feComponentTransfer
         in="result3"
         result="result1"
         id="feComponentTransfer12322">
        <feFuncR
           tableValues="0 0.1 0.2 0.3 0.4 0.5 0.6 0.7 0.8 0.9 1"
           type="discrete"
           id="feFuncR12316" />
        <feFuncG
           tableValues="0 0.1 0.2 0.3 0.4 0.5 0.6 0.7 0.8 0.9 1"
           type="discrete"
           id="feFuncG12318" />
        <feFuncB
           tableValues="0 0.1 0.2 0.3 0.4 0.5 0.6 0.7 0.8 0.9 1"
           type="discrete"
           id="feFuncB12320" />
      </feComponentTransfer>
      <feGaussianBlur
         stdDeviation="2"
         result="result5"
         id="feGaussianBlur12324" />
      <feBlend
         in2="result1"
         mode="lighten"
         result="result6"
         id="feBlend12326" />
      <feColorMatrix
         result="result2"
         type="luminanceToAlpha"
         in="result6"
         id="feColorMatrix12328" />
      <feDiffuseLighting
         lighting-color="#ffffff"
         in="result2"
         diffuseConstant="0.69999999"
         result="result1"
         surfaceScale="-15"
         id="feDiffuseLighting12332">
        <feDistantLight
           azimuth="225"
           elevation="20"
           id="feDistantLight12330" />
      </feDiffuseLighting>
      <feComposite
         in2="result6"
         k2="0.5"
         result="result3"
         k3="0.8"
         k1="0.2"
         in="result1"
         operator="arithmetic"
         id="feComposite12334"
         k4="0" />
      <feComposite
         in2="SourceGraphic"
         result="result7"
         operator="in"
         in="result3"
         id="feComposite12336" />
    </filter>
  </defs>
  <g
     inkscape:label="Camada 1"
     inkscape:groupmode="layer"
     id="layer1">
    <path
       style="color:#000000;fill:#b3b3b3;stroke-width:0.0805443;-inkscape-stroke:none"
       d="m 26.455989,3.1055503 c 0.808254,0.3342702 2.547997,2.3641693 2.992651,2.986836 V 40.204079 c -0.898112,-0.09463 -5.187253,-0.07572 -6.341676,0 V 6.0923863 c 0,-0.1450368 2.939681,-2.9344604 3.349025,-2.986836 z"
       id="rect8675"
       sodipodi:nodetypes="ccccsc" />
    <path
       style="fill:none;stroke:#000000;stroke-width:0.0723136px;stroke-linecap:butt;stroke-linejoin:miter;stroke-opacity:1"
       d="m 23.643569,40.148797 0.243909,-34.0742985 2.51228,-2.3659313 2.463495,2.4147134 -0.09756,34.0011264 z"
       id="path10690" />
    <path
       style="fill:none;stroke:#000000;stroke-width:0.0723136px;stroke-linecap:butt;stroke-linejoin:miter;stroke-opacity:1"
       d="m 23.643569,40.148797 -0.536605,0.05529 0.0063,-34.1360716 3.342733,-2.9624582 2.992649,2.9868359 V 40.204079 l -0.682985,-0.07967"
       id="path10805" />
    <path
       style="fill:#4d4d4d;stroke-width:0.0768404;-inkscape-stroke:none;stop-color:#000000"
       d="m 23.742161,37.862999 c -2.74e-4,-1.223683 0.04718,-8.868448 0.105607,-16.988374 L 23.953972,6.1111266 24.291658,5.8006785 c 0.185726,-0.1707466 0.737931,-0.6889614 1.227124,-1.1515903 l 0.889435,-0.8411424 1.193983,1.1954441 1.193979,1.195444 -0.05166,16.9445171 -0.05166,16.944517 H 26.21781 23.742767 Z"
       id="path10961" />
    <rect
       style="fill:#806600;stroke-width:0.0805443;-inkscape-stroke:none;stop-color:#000000"
       id="rect11102"
       width="0.89684808"
       height="14.349569"
       x="25.881407"
       y="37.121368"
       ry="0.26179758" />
    <circle
       style="fill:#808080;stroke-width:0.0268767;-inkscape-stroke:none;stop-color:#000000"
       id="path11250"
       cx="26.332294"
       cy="37.601181"
       r="0.29926732" />
    <circle
       style="fill:#808080;stroke-width:0.0268767;-inkscape-stroke:none;stop-color:#000000"
       id="path11250-7"
       cx="26.326584"
       cy="39.026806"
       r="0.29926732" />
    <path
       style="fill:none;stroke:#4d4d4d;stroke-width:0.0723136px;stroke-linecap:butt;stroke-linejoin:miter;stroke-opacity:1"
       d="m 25.875349,40.19148 0.0061,10.963779 0.89637,0.0061 V 40.191517 Z"
       id="path12441" />
    <path
       style="fill:none;stroke:#4d4d4d;stroke-width:0.0723136px;stroke-linecap:butt;stroke-linejoin:miter;stroke-opacity:1"
       d="m 25.875349,40.19148 0.896371,0.524409"
       id="path12443" />
    <path
       style="fill:none;stroke:#4d4d4d;stroke-width:0.0723136px;stroke-linecap:butt;stroke-linejoin:miter;stroke-opacity:1"
       d="m 25.869253,40.789062 0.902467,0.500017"
       id="path12445" />
    <path
       style="fill:none;stroke:#4d4d4d;stroke-width:0.0723136px;stroke-linecap:butt;stroke-linejoin:miter;stroke-opacity:1"
       d="m 25.857058,41.404936 0.932958,0.463432"
       id="path12447" />
    <path
       style="fill:none;stroke:#4d4d4d;stroke-width:0.0723136px;stroke-linecap:butt;stroke-linejoin:miter;stroke-opacity:1"
       d="m 25.857058,41.965931 0.926857,0.390256"
       id="path12449" />
    <path
       style="fill:none;stroke:#4d4d4d;stroke-width:0.0723136px;stroke-linecap:butt;stroke-linejoin:miter;stroke-opacity:1"
       d="m 25.863154,42.472047 0.896371,0.390255"
       id="path12451" />
    <path
       style="fill:none;stroke:#4d4d4d;stroke-width:0.0723136px;stroke-linecap:butt;stroke-linejoin:miter;stroke-opacity:1"
       d="m 25.857058,42.97206 0.914662,0.347574"
       id="path12453" />
    <path
       style="fill:none;stroke:#4d4d4d;stroke-width:0.0723136px;stroke-linecap:butt;stroke-linejoin:miter;stroke-opacity:1"
       d="m 25.887546,43.392807 0.890271,0.341475"
       id="path12455" />
    <path
       style="fill:none;stroke:#4d4d4d;stroke-width:0.0723136px;stroke-linecap:butt;stroke-linejoin:miter;stroke-opacity:1"
       d="m 25.875349,43.844041 0.926862,0.396352"
       id="path12457" />
    <path
       style="fill:none;stroke:#4d4d4d;stroke-width:0.0723136px;stroke-linecap:butt;stroke-linejoin:miter;stroke-opacity:1"
       d="m 25.875349,44.331863 0.908566,0.365865 v 0"
       id="path12459" />
    <path
       style="fill:none;stroke:#4d4d4d;stroke-width:0.0723136px;stroke-linecap:butt;stroke-linejoin:miter;stroke-opacity:1"
       d="m 25.857058,44.844073 0.908565,0.310987"
       id="path12461" />
    <path
       style="fill:none;stroke:#4d4d4d;stroke-width:0.0723136px;stroke-linecap:butt;stroke-linejoin:miter;stroke-opacity:1"
       d="m 25.869253,45.301407 0.884175,0.32318"
       id="path12463" />
    <path
       style="fill:none;stroke:#4d4d4d;stroke-width:0.0723136px;stroke-linecap:butt;stroke-linejoin:miter;stroke-opacity:1"
       d="m 25.881448,45.838011 0.884175,0.341475"
       id="path12465" />
    <path
       style="fill:none;stroke:#4d4d4d;stroke-width:0.0723136px;stroke-linecap:butt;stroke-linejoin:miter;stroke-opacity:1"
       d="m 25.887546,46.277049 0.890271,0.390256"
       id="path12467" />
    <path
       style="fill:none;stroke:#4d4d4d;stroke-width:0.0723136px;stroke-linecap:butt;stroke-linejoin:miter;stroke-opacity:1"
       d="m 25.887546,46.874631 0.884174,0.341472"
       id="path12469" />
    <path
       style="fill:none;stroke:#4d4d4d;stroke-width:0.0723136px;stroke-linecap:butt;stroke-linejoin:miter;stroke-opacity:1"
       d="m 25.857058,47.41733 0.908565,0.341474"
       id="path12471" />
    <path
       style="fill:none;stroke:#4d4d4d;stroke-width:0.0723136px;stroke-linecap:butt;stroke-linejoin:miter;stroke-opacity:1"
       d="m 25.887546,47.93564 0.878077,0.274399"
       id="path12473" />
    <path
       style="fill:none;stroke:#4d4d4d;stroke-width:0.0723136px;stroke-linecap:butt;stroke-linejoin:miter;stroke-opacity:1"
       d="m 25.881448,48.399069 0.884175,0.292693"
       id="path12475" />
    <path
       style="fill:none;stroke:#4d4d4d;stroke-width:0.0723136px;stroke-linecap:butt;stroke-linejoin:miter;stroke-opacity:1"
       d="m 25.875349,48.905184 0.890274,0.347572"
       id="path12477" />
    <path
       style="fill:none;stroke:#4d4d4d;stroke-width:0.0723136px;stroke-linecap:butt;stroke-linejoin:miter;stroke-opacity:1"
       d="m 25.863154,49.429591 0.908566,0.304887"
       id="path12479" />
    <path
       style="fill:none;stroke:#4d4d4d;stroke-width:0.0723136px;stroke-linecap:butt;stroke-linejoin:miter;stroke-opacity:1"
       d="m 25.905838,49.97839 0.865882,0.286594"
       id="path12481" />
    <path
       style="fill:none;stroke:#4d4d4d;stroke-width:0.0739984px;stroke-linecap:butt;stroke-linejoin:miter;stroke-opacity:1"
       d="m 25.893675,50.521502 0.890211,0.273574"
       id="path12483" />
    <path
       style="fill:#784421;stroke:#4d4d4d;stroke-width:0.0271675;-inkscape-stroke:none;stop-color:#000000"
       d="m 26.271706,51.106535 -0.335378,-0.0075 v -0.255421 c 0,-0.140483 0.0035,-0.255417 0.0078,-0.255417 0.0043,0 0.05645,0.01588 0.11586,0.03532 0.05941,0.01944 0.236975,0.07491 0.394602,0.123312 l 0.286595,0.08801 v 0.144997 c 0,0.143207 -7.91e-4,0.144921 -0.06707,0.139641 -0.0369,-0.0031 -0.217996,-0.0087 -0.40245,-0.01285 z"
       id="path12678" />
    <path
       style="fill:#784421;stroke:#4d4d4d;stroke-width:0.0271675;-inkscape-stroke:none;stop-color:#000000"
       d="M 26.332681,50.606849 25.936328,50.48294 v -0.215691 c 0,-0.11863 0.008,-0.215692 0.01749,-0.215692 0.0096,0 0.190723,0.05737 0.402454,0.127475 l 0.384966,0.12749 v 0.213991 c 0,0.117697 -0.0028,0.213145 -0.0061,0.212111 -0.0034,-0.0011 -0.184458,-0.05763 -0.402454,-0.125776 z"
       id="path12717" />
    <path
       style="fill:#784421;stroke:#4d4d4d;stroke-width:0.0271675;-inkscape-stroke:none;stop-color:#000000"
       d="m 26.326583,50.065959 -0.37806,-0.128102 -0.007,-0.211448 c -0.0054,-0.160513 5.48e-4,-0.211091 0.02438,-0.209985 0.01731,7.91e-4 0.196076,0.05849 0.397301,0.128194 l 0.365868,0.126741 0.007,0.213272 c 0.0038,0.117298 -0.0017,0.21241 -0.01224,0.211356 -0.01056,-0.0011 -0.189371,-0.05958 -0.397305,-0.130031 z"
       id="path12756" />
    <path
       style="fill:#784421;stroke:#4d4d4d;stroke-width:0.0271675;-inkscape-stroke:none;stop-color:#000000"
       d="m 26.308291,49.531779 -0.371963,-0.125393 v -0.213659 -0.213659 l 0.128056,0.05111 c 0.07043,0.02811 0.248789,0.09799 0.396355,0.155279 l 0.268301,0.104169 0.007,0.185837 c 0.0054,0.1401 -5.46e-4,0.185332 -0.02438,0.183777 -0.01732,-0.0011 -0.198899,-0.05849 -0.403479,-0.12746 z"
       id="path12795" />
    <path
       style="fill:#784421;stroke:#4d4d4d;stroke-width:0.0271675;-inkscape-stroke:none;stop-color:#000000"
       d="m 26.332681,49.034329 -0.396353,-0.158455 v -0.203005 -0.203005 l 0.402452,0.134408 0.402453,0.134407 v 0.229598 c 0,0.126282 -0.0028,0.22845 -0.0061,0.227051 -0.0034,-0.0013 -0.184458,-0.07385 -0.402452,-0.161002 z"
       id="path12834" />
    <path
       style="fill:#784421;stroke:#4d4d4d;stroke-width:0.0271675;-inkscape-stroke:none;stop-color:#000000"
       d="m 26.332681,48.496712 -0.396353,-0.132204 v -0.18351 c 0,-0.136764 0.0078,-0.18054 0.03048,-0.171854 0.01679,0.0064 0.194552,0.0628 0.395069,0.125302 0.200518,0.06251 0.368388,0.117467 0.373044,0.122119 0.0046,0.0046 0.0054,0.09033 0.0013,0.190398 l -0.0072,0.18193 z"
       id="path12873" />
    <path
       style="fill:#784421;stroke:#4d4d4d;stroke-width:0.0271675;-inkscape-stroke:none;stop-color:#000000"
       d="m 26.296096,51.179687 -0.432942,-0.0073 v -5.499611 -5.49962 h 0.46329 0.463288 l 0.0063,2.018362 c 0.0035,1.110097 0.0034,3.590667 -2.4e-5,5.512374 -0.0051,2.769049 -0.01255,3.492879 -0.03659,3.488522 -0.01666,-0.0031 -0.225149,-0.0087 -0.463265,-0.0127 z m 0.445137,-0.212411 v -0.157494 l -0.323183,-0.09998 c -0.177747,-0.05498 -0.355003,-0.110335 -0.393896,-0.123006 -0.03889,-0.0127 -0.08005,-0.023 -0.09147,-0.023 -0.01148,0 -0.02074,0.12622 -0.02074,0.280497 v 0.280495 h 0.414646 0.414648 z m 0,-0.446626 V 50.282397 L 26.326583,50.1447 25.911938,50.007002 v 0.248709 0.248711 l 0.408548,0.125119 c 0.224702,0.06882 0.411296,0.126067 0.414649,0.127245 0.0034,0.0011 0.0061,-0.105102 0.0061,-0.236141 z m 0,-0.536604 v -0.238253 l -0.415482,-0.137972 -0.41548,-0.137973 0.0069,0.247456 0.0069,0.247456 0.390258,0.127122 c 0.21464,0.06992 0.398487,0.127858 0.408551,0.128761 0.0101,7.9e-4 0.01829,-0.105576 0.01829,-0.236609 z m -0.0052,-0.508809 -0.007,-0.21046 -0.356929,-0.140666 c -0.196314,-0.07737 -0.380567,-0.148165 -0.409459,-0.157338 -0.05163,-0.01639 -0.05241,-0.01255 -0.04551,0.221087 l 0.007,0.237759 0.378059,0.128117 c 0.207935,0.07046 0.392209,0.128975 0.4095,0.130046 0.02389,0.0013 0.02975,-0.04865 0.02438,-0.208538 z m -0.01224,-0.766816 c -0.01638,-0.01541 -0.771459,-0.266667 -0.801375,-0.266667 -0.0058,0 -0.01056,0.102133 -0.01056,0.226945 v 0.226947 l 0.408548,0.157899 0.408551,0.157904 0.007,-0.242483 c 0.0038,-0.133367 -0.0017,-0.250608 -0.01224,-0.260545 z m 0.0096,-0.477709 c -0.01163,-0.01163 -0.776626,-0.251716 -0.803218,-0.252116 -0.0101,-1.42e-4 -0.01829,0.09052 -0.01829,0.201493 v 0.201764 l 0.408548,0.135448 0.408552,0.135448 0.007,-0.206136 c 0.0038,-0.113381 0.0028,-0.21053 -0.0028,-0.215906 z m 0.0077,-0.258483 -1.44e-4,-0.201229 -0.393773,-0.146343 c -0.216578,-0.08049 -0.403097,-0.150002 -0.41449,-0.154475 -0.01148,-0.0044 -0.02072,0.09505 -0.02072,0.221161 v 0.229291 l 0.396354,0.124476 c 0.217995,0.06847 0.404588,0.125347 0.414648,0.126419 0.0101,0.0011 0.01823,-0.08862 0.01812,-0.19929 z m 1.45e-4,-0.502743 V 47.22895 l -0.408551,-0.15727 -0.408551,-0.15727 -0.007,0.242441 c -0.0038,0.133336 -0.0021,0.247291 0.0038,0.253222 0.01745,0.01743 0.756405,0.29657 0.789804,0.298336 0.02243,0.0011 0.03048,-0.0619 0.03048,-0.238923 z m -2.73e-4,-0.546072 -2.73e-4,-0.250008 -0.392664,-0.170738 c -0.215965,-0.0939 -0.402767,-0.174522 -0.415121,-0.179142 -0.01316,-0.0049 -0.01957,0.105791 -0.01555,0.26572 l 0.0069,0.274124 0.390257,0.152893 c 0.21464,0.08409 0.398488,0.153847 0.408549,0.155027 0.0101,0.0011 0.01815,-0.110366 0.01797,-0.247869 z m -0.0047,-0.521758 -0.007,-0.210765 -0.401681,-0.155098 c -0.220924,-0.0853 -0.404773,-0.155097 -0.408551,-0.155097 -0.0038,0 -0.0069,0.08585 -0.0069,0.190777 v 0.190777 l 0.396352,0.174206 c 0.217996,0.09581 0.405016,0.1746 0.415598,0.175087 0.01056,5.48e-4 0.01607,-0.09396 0.01224,-0.209887 z m 0.0052,-0.504949 v -0.252295 l -0.371964,-0.135845 c -0.204581,-0.07473 -0.39117,-0.143467 -0.414648,-0.152771 -0.03893,-0.01544 -0.04268,0.0044 -0.04268,0.226223 v 0.243146 l 0.408547,0.159728 c 0.224704,0.08785 0.411296,0.160713 0.414649,0.161916 0.0034,0.0011 0.0061,-0.111345 0.0061,-0.250102 z m -0.0052,-0.519083 -0.007,-0.210383 -0.408549,-0.13964 -0.40855,-0.139641 v 0.201653 0.201656 l 0.103663,0.03876 c 0.410184,0.153388 0.691932,0.255467 0.708293,0.256612 0.01056,7.9e-4 0.01607,-0.09332 0.01224,-0.209028 z m -0.01209,-0.669485 c -0.01056,-0.01025 -0.198086,-0.08997 -0.416555,-0.177297 l -0.397217,-0.158782 0.0069,0.234154 0.0069,0.23415 0.402449,0.139457 0.402455,0.139442 0.007,-0.196305 c 0.004,-0.107964 -0.0017,-0.204635 -0.01224,-0.214819 z m 0.01645,-0.260419 -7.9e-4,-0.213421 -0.414734,-0.174506 -0.414736,-0.174504 0.007,0.219182 0.0069,0.219185 0.402454,0.166839 c 0.221348,0.09176 0.405197,0.167696 0.40855,0.168743 0.0034,0.0011 0.0058,-0.09413 0.0054,-0.211518 z m 7.91e-4,-0.489366 v -0.214968 l -0.398158,-0.150904 c -0.218987,-0.08299 -0.406022,-0.150904 -0.415635,-0.150904 -0.0096,0 -0.01423,0.0894 -0.01041,0.198662 l 0.007,0.198662 0.37806,0.164911 c 0.207936,0.0907 0.391781,0.165939 0.408551,0.167202 0.02225,0.0017 0.03048,-0.05575 0.03048,-0.212674 z m -4.3e-5,-0.449687 -4.1e-5,-0.176838 -0.384116,-0.144324 c -0.211267,-0.07938 -0.397841,-0.149144 -0.414607,-0.155054 -0.02263,-0.008 -0.03041,0.03558 -0.03015,0.168709 l 2.72e-4,0.179446 0.39601,0.151333 c 0.217807,0.08323 0.40424,0.151837 0.414304,0.152449 0.0101,5.47e-4 0.01829,-0.07846 0.01826,-0.175719 z m -0.005,-0.436024 -0.007,-0.198212 -0.408523,-0.178116 -0.40855,-0.178114 v 0.225646 0.225647 l 0.384157,0.147721 c 0.211288,0.08124 0.398325,0.149052 0.415636,0.150675 0.02389,0.0021 0.02976,-0.04482 0.02438,-0.195248 z m -0.01224,-0.706751 c -0.02009,-0.01986 -0.771791,-0.338982 -0.798524,-0.338982 -0.0084,0 -0.01209,0.100189 -0.0083,0.22266 l 0.007,0.222665 0.402454,0.175315 0.402452,0.175316 0.007,-0.218956 c 0.0038,-0.120435 -0.0017,-0.227534 -0.01224,-0.238018 z m 0.01732,-0.284445 v -0.213766 l -0.40263,-0.200883 c -0.221452,-0.110488 -0.408045,-0.200884 -0.414645,-0.200884 -0.0066,0 -0.01178,0.112509 -0.01163,0.250009 l 2.73e-4,0.250008 0.383798,0.16261 c 0.211088,0.08943 0.39752,0.163524 0.414287,0.16464 0.02222,0.0013 0.03048,-0.0559 0.03048,-0.211734 z m 0,-0.528231 v -0.254174 l -0.39908,-0.221452 c -0.219433,-0.121797 -0.406022,-0.221453 -0.414646,-0.221453 -0.0086,0 -0.01569,0.123634 -0.01569,0.274746 v 0.274746 l 0.396352,0.199482 c 0.217996,0.109724 0.404588,0.20011 0.414648,0.20088 0.0101,7.89e-4 0.01829,-0.112983 0.01829,-0.252775 z m -2.2e-4,-0.569027 -2.15e-4,-0.2622 -0.273055,-0.158544 c -0.1502,-0.0872 -0.337075,-0.195056 -0.415296,-0.239685 l -0.142211,-0.08114 0.0069,0.275074 0.0069,0.275076 0.402452,0.22503 c 0.221348,0.123756 0.405195,0.225828 0.408549,0.226812 0.0034,0.0011 0.006,-0.116212 0.006,-0.26042 z m 2.17e-4,-0.5427 V 40.22197 H 26.358276 25.97519 l 0.364791,0.217038 c 0.200637,0.119364 0.373026,0.218154 0.383086,0.219517 0.0101,0.0013 0.01829,-0.0963 0.01829,-0.217036 z"
       id="path12912" />
    <path
       style="fill:#784421;stroke:#4d4d4d;stroke-width:0.0271675;-inkscape-stroke:none;stop-color:#000000"
       d="m 26.314388,47.540508 -0.365865,-0.140284 -0.007,-0.22614 c -0.0064,-0.208528 -0.0037,-0.224888 0.03659,-0.210112 0.024,0.0089 0.205536,0.07809 0.403407,0.153951 l 0.359768,0.137927 v 0.138677 c 0,0.153031 -0.02208,0.292445 -0.04572,0.288693 -0.0084,-0.0013 -0.179885,-0.06554 -0.381111,-0.142701 z"
       id="path12951" />
    <path
       style="fill:#784421;stroke:#4d4d4d;stroke-width:0.0271675;-inkscape-stroke:none;stop-color:#000000"
       d="m 26.60708,48.110048 c -0.05367,-0.01732 -0.226531,-0.07154 -0.384157,-0.120466 l -0.286595,-0.08896 V 47.70776 c 0,-0.106081 0.0083,-0.192972 0.01829,-0.193098 0.0569,-7.89e-4 0.769641,0.283884 0.780264,0.311564 0.007,0.01826 0.0031,0.09667 -0.0087,0.174264 l -0.02148,0.14108 z"
       id="path12990" />
    <path
       style="fill:#784421;stroke-width:0.375688;-inkscape-stroke:none;stop-color:#000000"
       d=""
       id="path13029"
       transform="scale(0.26458333)" />
    <path
       style="fill:#784421;stroke-width:0.375688;-inkscape-stroke:none;stop-color:#000000"
       d=""
       id="path13068"
       transform="scale(0.26458333)" />
    <path
       style="fill:#784421;stroke:#4d4d4d;stroke-width:0.0271675;-inkscape-stroke:none;stop-color:#000000"
       d="m 26.326583,46.417636 -0.37806,-0.167369 -0.007,-0.169825 -0.007,-0.169827 0.391121,0.149679 0.391122,0.14968 1.45e-4,0.18903 c 7.2e-5,0.10397 -0.0028,0.188351 -0.006,0.187517 -0.0034,-7.9e-4 -0.176223,-0.07684 -0.384159,-0.168884 z"
       id="path13107" />
    <path
       style="fill:#784421;stroke:#4d4d4d;stroke-width:0.0271675;-inkscape-stroke:none;stop-color:#000000"
       d="m 26.320932,46.991372 -0.383712,-0.147231 -5.48e-4,-0.237813 c -2.14e-4,-0.130796 0.009,-0.237814 0.02044,-0.237814 0.01148,0 0.189858,0.07448 0.396355,0.165496 l 0.375451,0.165494 0.007,0.09672 c 0.0038,0.05319 -0.0017,0.15199 -0.01224,0.219547 l -0.01918,0.122838 z"
       id="path13146" />
    <path
       style="fill:#784421;stroke:#4d4d4d;stroke-width:0.0271675;-inkscape-stroke:none;stop-color:#000000"
       d="m 26.314388,45.954643 -0.365865,-0.142946 -0.007,-0.209414 c -0.0038,-0.115171 0.0017,-0.209627 0.01224,-0.20989 0.01056,-2.72e-4 0.192115,0.06259 0.403402,0.139672 l 0.38416,0.140145 v 0.175423 c 0,0.172951 -0.01454,0.253842 -0.04528,0.251265 -0.0086,-7.9e-4 -0.180325,-0.06564 -0.381551,-0.144247 z"
       id="path13185" />
    <path
       style="fill:#784421;stroke:#4d4d4d;stroke-width:0.0271675;-inkscape-stroke:none;stop-color:#000000"
       d="m 26.326583,45.417441 -0.37806,-0.138263 -0.0072,-0.17791 c -0.0057,-0.137682 -7.2e-5,-0.175274 0.02438,-0.166257 0.01738,0.0064 0.188821,0.06383 0.380959,0.127612 0.192138,0.06378 0.354571,0.129587 0.360965,0.146252 0.0064,0.01667 0.0083,0.101521 0.0043,0.188565 l -0.0073,0.158269 z"
       id="path13224" />
    <path
       style="fill:#784421;stroke:#4d4d4d;stroke-width:0.0271675;-inkscape-stroke:none;stop-color:#000000"
       d="m 26.296306,44.945767 -0.359559,-0.126082 -2.16e-4,-0.203836 c -2.19e-4,-0.18379 0.004,-0.202318 0.04248,-0.188412 0.02348,0.0084 0.198905,0.07826 0.38984,0.155051 l 0.347154,0.139626 5.47e-4,0.176835 c 2.72e-4,0.126465 -0.0083,0.176275 -0.03007,0.174868 -0.01676,-0.0011 -0.192291,-0.0587 -0.390049,-0.128056 z"
       id="path13263" />
    <path
       style="fill:#784421;stroke:#4d4d4d;stroke-width:0.0271675;-inkscape-stroke:none;stop-color:#000000"
       d="m 26.308515,44.457595 -0.371741,-0.150124 -2.15e-4,-0.18903 c -1.46e-4,-0.103969 0.0031,-0.189033 0.007,-0.189033 0.004,0 0.182398,0.07497 0.396354,0.166591 l 0.389011,0.166593 0.0077,0.118385 c 0.0081,0.127077 -0.0096,0.232827 -0.03858,0.229057 -0.0098,-0.0013 -0.185112,-0.06987 -0.389568,-0.15245 z"
       id="path13302" />
    <path
       style="fill:#784421;stroke:#4d4d4d;stroke-width:0.0271675;-inkscape-stroke:none;stop-color:#000000"
       d="m 26.320876,43.982458 -0.383766,-0.162807 -2.74e-4,-0.178869 c -2.16e-4,-0.09837 0.0087,-0.175208 0.01992,-0.170737 0.01117,0.0044 0.192284,0.07398 0.402454,0.154448 l 0.382128,0.146313 -0.0024,0.134178 c -0.0047,0.267035 0.01867,0.26268 -0.417923,0.07746 z"
       id="path13341" />
    <path
       style="fill:#784421;stroke:#4d4d4d;stroke-width:0.0271675;-inkscape-stroke:none;stop-color:#000000"
       d="m 26.320486,43.507415 -0.384158,-0.146267 v -0.153791 -0.153791 l 0.152449,0.05844 c 0.08385,0.03214 0.264883,0.100235 0.40231,0.151332 l 0.249866,0.09289 -0.0028,0.08538 c -0.0017,0.04695 -0.0096,0.113886 -0.01815,0.148731 l -0.01541,0.06337 z"
       id="path13380" />
    <path
       style="fill:#784421;stroke:#4d4d4d;stroke-width:0.0271675;-inkscape-stroke:none;stop-color:#000000"
       d="m 26.497321,43.164059 c -0.114023,-0.04433 -0.286899,-0.110733 -0.384158,-0.147583 l -0.176835,-0.06698 v -0.195029 c 0,-0.10726 0.0098,-0.191369 0.02173,-0.186899 0.01194,0.0044 0.187377,0.07947 0.389827,0.166674 l 0.368089,0.15854 5.46e-4,0.176837 c 2.17e-4,0.09727 -0.0021,0.176429 -0.0057,0.175931 -0.0034,-5.47e-4 -0.09939,-0.03717 -0.21342,-0.0815 z"
       id="path13419" />
    <path
       style="fill:#784421;stroke:#4d4d4d;stroke-width:0.0271675;-inkscape-stroke:none;stop-color:#000000"
       d="m 26.308831,42.616269 -0.371418,-0.162517 -5.47e-4,-0.200275 -5.46e-4,-0.200275 0.262204,0.110932 c 0.144216,0.06101 0.319828,0.133459 0.390258,0.160975 l 0.128056,0.05006 v 0.203938 c 0,0.112172 -0.0083,0.202985 -0.01829,0.201818 -0.0101,-0.0011 -0.185434,-0.07526 -0.389715,-0.164641 z"
       id="path13458" />
    <path
       style="fill:#784421;stroke:#4d4d4d;stroke-width:0.0271675;-inkscape-stroke:none;stop-color:#000000"
       d="m 26.311413,42.107369 -0.368842,-0.158302 -0.01362,-0.114987 c -0.01438,-0.122012 0.0037,-0.320536 0.02888,-0.317697 0.0083,7.89e-4 0.185208,0.08626 0.393144,0.189622 0.370522,0.184177 0.378221,0.189599 0.386108,0.272059 0.0098,0.101903 -0.01673,0.293747 -0.04003,0.290176 -0.0092,-0.0013 -0.18278,-0.07381 -0.385643,-0.160877 z"
       id="path13497" />
    <path
       style="fill:#784421;stroke:#4d4d4d;stroke-width:0.0271675;-inkscape-stroke:none;stop-color:#000000"
       d="m 26.293166,41.57065 -0.381228,-0.187955 0.0018,-0.147415 c 0.0011,-0.08108 0.0092,-0.192178 0.01829,-0.246885 l 0.01648,-0.09947 0.396352,0.218648 0.396356,0.218648 v 0.103036 c 0,0.144048 -0.02753,0.329356 -0.04892,0.329356 -0.0098,0 -0.189461,-0.08458 -0.399137,-0.187955 z"
       id="path13536" />
    <path
       style="fill:#784421;stroke:#4d4d4d;stroke-width:0.0271675;-inkscape-stroke:none;stop-color:#000000"
       d="m 26.323342,40.98326 -0.381026,-0.211386 -0.01224,-0.244461 c -0.0067,-0.134453 -0.01086,-0.246276 -0.009,-0.248486 0.0017,-0.0021 0.184245,0.1025 0.405594,0.232694 l 0.402454,0.236715 0.007,0.188374 c 0.0038,0.103602 -0.0017,0.204024 -0.0124,0.223156 -0.01544,0.02758 -0.09834,-0.009 -0.400492,-0.176606 z"
       id="path13575" />
    <path
       style="fill:#784421;stroke:#4d4d4d;stroke-width:0.0271675;-inkscape-stroke:none;stop-color:#000000"
       d="m 26.375368,40.428469 -0.30489,-0.181422 0.335378,-2.72e-4 0.335377,-2.74e-4 -2.74e-4,0.09147 c -2.74e-4,0.118951 -0.02635,0.274723 -0.04562,0.273232 -0.0083,-5.46e-4 -0.152297,-0.0828 -0.319992,-0.18259 z"
       id="path13614" />
  </g>
</svg>
