<?xml version="1.0" encoding="UTF-8" standalone="no"?>
<!-- Created with Inkscape (http://www.inkscape.org/) -->

<svg
   width="200"
   height="200"
   viewBox="0 0 52.916665 52.916668"
   version="1.1"
   id="svg5"
   sodipodi:docname="pocaoVazio.svg"
   inkscape:version="1.1.2 (b8e25be833, 2022-02-05)"
   xmlns:inkscape="http://www.inkscape.org/namespaces/inkscape"
   xmlns:sodipodi="http://sodipodi.sourceforge.net/DTD/sodipodi-0.dtd"
   xmlns="http://www.w3.org/2000/svg"
   xmlns:svg="http://www.w3.org/2000/svg">
  <sodipodi:namedview
     id="namedview7"
     pagecolor="#ffffff"
     bordercolor="#666666"
     borderopacity="1.0"
     inkscape:pageshadow="2"
     inkscape:pageopacity="0.0"
     inkscape:pagecheckerboard="0"
     inkscape:document-units="mm"
     showgrid="false"
     showborder="true"
     inkscape:zoom="2.56"
     inkscape:cx="71.484375"
     inkscape:cy="115.625"
     inkscape:window-width="1920"
     inkscape:window-height="986"
     inkscape:window-x="-11"
     inkscape:window-y="-11"
     inkscape:window-maximized="1"
     inkscape:current-layer="g11961"
     units="px" />
  <defs
     id="defs2" />
  <g
     inkscape:label="Camada 1"
     inkscape:groupmode="layer"
     id="layer1">
    <g
       id="g11961"
       transform="matrix(1.3116719,0,0,1.3116719,-16.466167,-27.966472)">
      <g
         id="g10132"
         transform="matrix(0.31674587,0,0,0.32021315,18.883669,18.383556)">
        <path
           style="color:#000000;opacity:0.527825;fill:#cccccc;stroke-width:0.389874;-inkscape-stroke:none"
           d="m 85.729677,93.130789 c 0,23.213101 -18.81795,42.031051 -42.031053,42.031051 -23.213107,0 -42.031049,-18.81795 -42.031049,-42.031051 0,-18.46264 39.767294,-2.03134 32.705809,-69.54271 -0.468093,-4.475203 5.991554,-3.18518 10.742017,-3.18518 4.646296,0 9.374346,-1.301334 9.044636,3.09059 -5.02655,66.95682 31.56964,51.07049 31.56964,69.6373 z"
           id="path846"
           sodipodi:nodetypes="sssssss" />
        <ellipse
           style="fill:#b3b3b3;fill-opacity:1;stroke-width:0.389874;-inkscape-stroke:none;stop-color:#000000"
           id="path1503"
           cx="44.643143"
           cy="23.000343"
           rx="7.5561447"
           ry="1.1806475" />
        <path
           style="color:#000000;fill:#b3b3b3;stroke-width:0.15407;-inkscape-stroke:none"
           d="m 34.794959,9.174154 h 19.528848 l -3.67602,14.401705 H 38.700726 Z"
           id="rect2341"
           sodipodi:nodetypes="ccccc" />
        <path
           style="color:#000000;fill:#ffffff;stroke-width:0.222559;-inkscape-stroke:none"
           d="m 21.360495,106.70942 c 0,7.37002 4.178613,14.42295 4.178613,14.42295 -5.47866,-0.34524 -12.805423,-8.13128 -12.805423,-15.5013 0,-7.370021 0.09115,-14.544111 14.42295,-13.075011 7.007155,0.71828 -5.79614,6.78335 -5.79614,14.153361 z"
           id="path11141"
           sodipodi:nodetypes="sssss" />
      </g>
    </g>
  </g>
</svg>
