<?xml version="1.0" encoding="UTF-8" standalone="no"?>
<!-- Generator: Adobe Illustrator 21.0.0, SVG Export Plug-In . SVG Version: 6.00 Build 0)  -->

<svg
   version="1.1"
   id="Layer_1"
   x="0px"
   y="0px"
   width="1400px"
   height="980px"
   viewBox="0 0 1400 980"
   style="enable-background:new 0 0 1400 980;"
   xml:space="preserve"
   sodipodi:docname="cavern 2.svg"
   inkscape:version="1.1.2 (b8e25be833, 2022-02-05)"
   xmlns:inkscape="http://www.inkscape.org/namespaces/inkscape"
   xmlns:sodipodi="http://sodipodi.sourceforge.net/DTD/sodipodi-0.dtd"
   xmlns="http://www.w3.org/2000/svg"
   xmlns:svg="http://www.w3.org/2000/svg"><defs
   id="defs349">
	
	
	
	
	
	
	
	
	
	
	
	
	
	
	
	
	
	
	
	
	
	
	
	
	
	
	
	
	
	
	
	
</defs><sodipodi:namedview
   id="namedview347"
   pagecolor="#505050"
   bordercolor="#eeeeee"
   borderopacity="1"
   inkscape:pageshadow="0"
   inkscape:pageopacity="0"
   inkscape:pagecheckerboard="0"
   showgrid="false"
   inkscape:zoom="0.65918367"
   inkscape:cx="628.80805"
   inkscape:cy="468.0031"
   inkscape:window-width="2304"
   inkscape:window-height="1202"
   inkscape:window-x="2293"
   inkscape:window-y="-11"
   inkscape:window-maximized="1"
   inkscape:current-layer="Layer_1" />
<style
   type="text/css"
   id="style2">
	.st0{fill-rule:evenodd;clip-rule:evenodd;fill:#1A6366;}
	.st1{fill-rule:evenodd;clip-rule:evenodd;fill:#228285;}
	.st2{fill-rule:evenodd;clip-rule:evenodd;fill:#247D80;}
	.st3{fill-rule:evenodd;clip-rule:evenodd;fill:#2A9A9E;}
	.st4{fill-rule:evenodd;clip-rule:evenodd;fill:#31A4A8;}
	.st5{fill-rule:evenodd;clip-rule:evenodd;fill:#40A8B3;}
	.st6{fill-rule:evenodd;clip-rule:evenodd;fill:#3B9DA8;}
	.st7{fill-rule:evenodd;clip-rule:evenodd;fill:#4EAFBA;}
	.st8{fill-rule:evenodd;clip-rule:evenodd;fill:#B3EDEF;}
	.st9{fill-rule:evenodd;clip-rule:evenodd;fill:#C4F3F5;}
	.st10{fill-rule:evenodd;clip-rule:evenodd;fill:#D2FBFC;}
	.st11{fill-rule:evenodd;clip-rule:evenodd;fill:#A6E4E6;}
	.st12{fill-rule:evenodd;clip-rule:evenodd;fill:#DEFEFF;}
	.st13{fill-rule:evenodd;clip-rule:evenodd;fill:#FFFFFF;}
</style>
<rect
   y="0"
   class="st0"
   width="1400"
   height="980"
   id="rect4"
   x="0" /><path
   class="st1"
   d="m 0,980 h 156 c 6.3,-38 10.7,-71.7 10.5,-74.9 -2.1,-52.9 2.7,-68.5 38,-105.7 27.2,-28.7 51.9,-0.1 82.3,-20.4 52.4,-35.1 69.7,-55.5 94.8,-86.7 47.4,-59.2 140.3,-44.2 150.5,-84 8.5,-33 82.4,-122.2 113.7,-138.8 42.2,-22.4 54.9,-48.3 76,-62.6 27.3,-18.6 35.8,-12.5 68.4,-12.5 62.9,0 48.5,45.3 92.8,90.4 63.1,64.4 84.3,48.5 103.2,117.4 19,69.2 28.6,23.1 65,73.8 43.9,61.2 40,76.9 28.1,145.3 -19.3,110.6 95.3,154.7 94.8,158.7 H 1400 V 0 H 0 Z"
   id="path6" /><path
   class="st2"
   d="m 0,874.8 c 50.7,6.9 109.1,0.3 152.1,1.8 3.5,0.1 9.1,-2.1 14.5,-5.6 1,-12.7 3.4,-22.8 8.2,-32.7 v 0 c -8.7,-16.6 -22.4,-83.5 -11.6,-104.7 9.9,-19.4 14.8,-20.5 28.7,-34.4 17.1,-17.1 18.1,-42.3 33.9,-59.8 23.5,-26.1 91.3,-27.1 133.3,-74.3 6.6,-7.4 37.8,-31.4 42.9,-37.9 8.2,-10.4 21.5,-21 31.4,-33.2 13.1,-16.1 35.9,-35.3 54.6,-43.7 34.4,-15.4 98.8,-44.5 126,-68.5 16.4,-14.5 72,-48.5 93.7,-49.7 29.2,-1.5 75.1,-5.2 97.7,16.6 29.7,28.8 51.3,21.5 64.1,71.9 4.5,17.6 68.8,60.1 88,65 7.2,1.9 28.3,8.5 30.5,14.8 5.6,16.3 23.8,29.8 28.6,56.5 6.7,37.6 48.1,52.6 76.2,80.7 36.8,36.8 169.2,92.5 307,141.2 V 0 H 0 Z"
   id="path8" /><path
   class="st3"
   d="m 0,653.3 c 48,-21.6 125.8,-13.6 173,-30.2 101.6,-35.9 166.3,-91.5 243.5,-160.9 60.9,-54.8 154.6,-70 222.7,-124.7 52.4,-42.1 151.7,-64.7 195,8.6 26.9,45.4 95.8,131.9 154.2,136.9 53.5,4.7 18.5,119.2 200.3,156.3 40.7,8.3 130.8,65.1 190.4,62.8 7.8,-0.3 14.7,0.1 21,1 V 0 H 0 Z"
   id="path10" /><path
   class="st4"
   d="m 356,432.9 c -7.8,5.5 -49.8,25.1 -58.6,27.7 -9.3,2.8 -13.3,10.3 -19.5,15.2 -8.4,6.7 -19.3,27.4 -24.8,36.7 -23.3,38.9 0.7,19.8 -45.5,44.4 -0.9,0.5 -1.2,1.2 -1.8,2.3 -13,21.9 18.5,27.7 33.9,18.7 17.7,-10.4 32.3,-21.8 50.6,-32.9 16.4,-9.9 30.5,-23.7 42.3,-30.8 0.3,-0.2 73.7,-60.4 74.4,-61.1 16.9,-18.8 19.2,-14.4 17.1,-39.1 -1.7,-18.8 -62.4,14.9 -68.1,18.9 z"
   id="path12" /><path
   class="st5"
   d="M 0,702.9 C 37.2,685 68.9,669.2 80.4,663.5 131.8,638 128.5,633.7 166.8,601 c 21.2,-18.1 35,-57.7 47.1,-81 54.9,-105.3 92.1,-104.9 198.4,-132.6 54.5,-14.2 54.9,6.9 69.8,61.4 20.4,74.7 8,5.2 15.1,-52.9 13.1,-106.4 32.2,3.3 35.7,11.7 2.9,7.1 1.8,41.4 5.7,2.4 5.8,-58.3 43.4,-103 47.7,-68 2.1,17 8.6,41.2 11.7,8.5 1.2,-12.2 31.7,-52.4 102.6,-103.2 105.1,-75.3 126.1,6.6 201.5,73.1 20.7,18.3 38.9,32 55.9,43.3 7,12.4 13.9,27.4 15.2,44.4 1.3,17 5,26.2 4.6,47.1 -0.5,24 2.9,63.3 1.4,85.8 3,-28.2 5,-40.9 10.4,-67.7 2.5,-12.4 1.4,-28.4 4.7,-44.5 0.9,-4.4 3,-21.4 9.5,-17.5 9,5.4 16.3,0.9 15.4,22.9 -0.1,2.4 1.6,50.4 7,32.9 2.4,-7.5 4.1,-26.4 15,-11.2 10.5,14.7 0.4,53.7 10.6,46.2 2.6,-1.9 2.7,-60.4 22.3,-30.4 8.6,13.2 -11.4,18 21.6,18 3.4,-9.9 -2.2,-22.1 10.2,-19.6 20.3,4.1 2.9,100.2 19.3,49.2 0.7,-2.2 6.4,-42.6 6.4,-46 0,-1.5 -0.1,-3.1 -0.3,-4.9 108.8,94 83.6,214.3 238.3,283.4 7.1,3.2 18.9,10.6 30.1,17.4 V 0 H 0 Z"
   id="path14" /><polygon
   class="st6"
   points="916.6,762.1 733.2,824.3 221.2,819.1 0,768.3 0,980 1400,980 1400,771.2 1254.3,769.9 1113.4,803.2 1004,763.1 "
   id="polygon16" /><path
   class="st5"
   d="m 1113.4,803.2 -109.4,-40.1 -87.4,-1 -183.4,62.2 -512,-5.2 -18.5,-4.2 c 3.9,3.1 7.6,6.4 11.2,9.9 35.5,35.7 118.5,65.4 167.2,68.6 34.4,2.3 73,15.8 106.3,-1.2 27.7,-14.2 109.6,21.6 139.1,33.7 22.8,9.4 231.9,19.4 259,8.6 123.9,-49.6 156.3,-69.2 283.3,-69.2 28.5,0 68.8,-41.1 53.8,-88.1 z"
   id="path18" /><path
   class="st7"
   d="m 916.6,762.1 -183.4,62.2 c 18,9.4 -56.3,55.1 4.8,60.9 5.9,0.6 105.7,-62.9 120.1,-60.9 42,5.8 58.3,-21.4 57.8,-32.6 -0.2,-4.4 5.7,-29.5 0.7,-29.6 z"
   id="path20" /><path
   class="st8"
   d="m 0,211.5 v 338.2 295.6 h 122.5 c -3.6,-55.6 -9.7,-187.9 1.7,-231.8 13.5,-52.1 18.7,-58.5 39,-54 5.1,103.6 3.7,183.9 -2.7,285.9 H 265 c 0.1,-0.7 -7.5,-242.2 -7,-245.1 20.3,-138.2 -18.6,-291.8 77.3,-291.8 103.1,0 247.4,-36.5 333.3,-135.4 58.1,-67.1 134.4,40 205.3,37.9 71.4,-2.2 118,96.5 195.3,102.1 123.8,9 91,423.5 64.6,528.8 -0.3,1.2 -0.5,2.3 -0.7,3.4 H 1400 V 576.5 164 0 H 0 Z m 1249.3,267.6 c 3.9,-26 4.2,-63.3 9.2,-99.5 8.7,7.9 15.5,15.5 19.7,22.5 68.8,114.6 121.5,214.8 57.6,343.7 -13.9,28 -38.5,62.4 -61.7,97 3.1,-13.8 3.7,-29.3 1.2,-44.7 -11.6,-71.2 -37.3,-244.5 -26,-319 z"
   id="path22" /><path
   class="st9"
   d="m 614.7,138.6 c -30.6,-6.2 -69,12.5 -95.8,25.6 -10.5,5.1 -137.4,48.5 -149.6,50.8 -11.5,2.2 -75.6,26.4 -84.2,36.8 -9.8,11.9 -15.4,26.8 0.6,37.6 12.2,-3.5 66.2,1.2 81.3,-3.7 7.9,-2.6 24.5,1.1 41.4,-4.7 7.4,-2.5 67.3,-22.4 70.1,-22.9 3.7,-0.6 36.1,-22.6 50.8,-27.6 32.8,-11.3 45.1,-23.7 72.1,-41.7 10,-6.7 17.5,-9.5 24.5,-19.5 10.5,-15.1 9.6,-26.5 -11.2,-30.7 z"
   id="path24" /><path
   class="st3"
   d="m 693.2,390.2 c -1,0.9 -14.7,8 -18.8,12.9 -6.8,8 -18.3,20.6 -27.6,24.8 -21.6,9.7 -8.4,20.4 -6.1,19.2 8.4,-4.2 14.1,1.5 31.7,-9.6 6.5,-4.1 7.5,-4.4 13.4,-10 4.7,-4.5 32,-30.9 32,-35.3 0.1,-7.9 -20.6,-5.7 -24.6,-2 z"
   id="path26" /><path
   class="st10"
   d="M 944.9,0 H 747.3 518.7 465.9 259.4 164.7 0 V 653.3 980 H 228.9 C 205.8,938.9 182.2,880.8 162.5,849.7 132.1,801.8 112.9,723.9 107.3,682.1 65.6,370.2 164.9,495.9 211.3,278.5 c 11.5,-29.3 42.5,-36.5 50.1,-58.7 9,-26.6 25.9,-63.7 30.8,-23.5 l 23.2,367.8 20.9,-316.2 c 0.9,-13.6 18,-85.2 33.8,-56.9 2.9,5.1 20.8,-3.9 22.3,9.9 L 418,440.8 c 8.4,-90.8 6.2,-166.4 21.7,-245 8.2,-41.9 7.6,-65.5 37.7,-54.4 18.8,7 20.8,56.7 29.7,121.3 C 530.6,91 552.6,93.8 643.7,78.2 c 10.6,2.9 22.1,5.5 34.7,7.6 98.3,16.7 106.2,139.6 125,214.9 L 824,183.8 c 9.3,-34.4 6.7,-45.4 14,-47.6 8.6,-2.7 19,-8.4 19.6,32.7 0.6,37.9 25.8,46.5 26.6,55.4 10.3,117.7 14.1,248.8 16.6,233.8 2.8,-16.1 25,-187.8 42,-287.2 8.4,-49 15.3,-7.8 28,6.3 8.6,9.5 26.6,5 28.3,31.4 l 28.5,437.3 45.2,-361.7 c 11.2,-90 28.5,-110.1 41.3,-10.8 l 25.6,197.1 36.9,-244.1 c 6.8,-31.5 20.2,3.4 27.3,11.5 9.2,10.4 29.7,2.2 32.8,27.6 l 26.2,323 24.2,-272.1 c 8.6,-40.2 25.6,-16.1 31.2,-16.3 30.8,-1 28.1,9.1 32.2,34.2 L 1400,747.7 V 0 h -173.5 z"
   id="path28" /><path
   class="st8"
   d="M 944.9,0 H 747.3 651.7 c 40,33 72.2,74.1 152.8,74.1 36,0 56.8,-2.7 92.2,1.7 36.6,4.5 30.6,17.8 65.6,28.4 4.8,1.4 11.9,17.1 12.8,21.2 10.1,2.1 30.1,39.5 73.6,11.6 21.6,-13.8 50.1,31.2 106.3,-25 18.7,-18.7 41.4,-31 66.8,-14.1 17.5,11.7 -6.9,93.5 51.4,109 0.3,0.1 58.7,38.8 75.1,42.2 16.6,3.4 33,19.8 51.7,26.6 V 0 h -173.5 z"
   id="path30" /><path
   class="st11"
   d="m 944.9,0 h -197.6 -7.6 c 1.3,2.7 2.4,5.6 3.4,8.7 4.3,13.6 24.5,35 39.3,34.4 10.1,-0.4 21.2,6.4 37.9,1.8 11.4,-3.2 67.3,-5.5 78.2,0.6 8.2,4.6 52.9,16.6 59.4,25 8.3,10.6 48.8,15.3 64.3,21.7 15.7,6.5 85.8,-13.3 101.6,-26.4 0.2,-0.1 43.3,-16.4 51.6,-20.8 21,-11.2 30.1,-11.3 53.7,-5.5 33.3,8.1 29.5,63.9 64.8,91.3 43.3,33.6 29.6,52.3 106.1,52.3 V 0 h -173.5 z"
   id="path32" /><path
   class="st8"
   d="M 164.6,0 H 0 V 653.3 734 c 7.3,0.9 14.9,0.4 22.9,-1.7 20.3,-5.4 48.7,-64.5 27,-64.5 -7.8,0 -10.4,-3.2 -12.5,-6.3 -19.6,-29 -5.8,-97.6 15.6,-125 21.2,-27.1 3.5,-90.3 46.3,-147.3 35.3,-46.9 27.6,-165.9 32.9,-173.4 0.2,-0.2 7.5,-35.6 18.9,-51.6 8.4,-11.7 17.7,-28.7 33.1,-34 7.6,-2.6 39.1,-21 54.6,-23.6 25.1,-4.3 52,-59.9 78.4,-74.3 C 322,29.8 346.7,7.9 361.4,0 h -102 z"
   id="path34" /><path
   class="st9"
   d="M 164.6,0 H 0 v 17.1 c 18.1,-0.4 37.5,2.4 45.9,6.9 12.2,6.5 29.2,12.9 40.6,22.9 13.8,12.1 58.4,28.5 76.4,21.3 23.2,-9.3 26.3,-9.3 48.1,-23.3 12.9,-8.3 33.7,-29.3 51.7,-44.8 h -3.3 -94.8 z"
   id="path36" /><path
   class="st9"
   d="M 69.4,147.6 C 53,143.2 37.3,131.4 27.9,128.5 25.2,127.6 9.1,119.5 0,116.6 v 251.6 c 10.6,2.1 18.2,-8.4 40.4,0.8 16.6,6.8 20.4,-4 27.5,-17.2 13.8,-25.5 16.9,-45 13.1,-75.2 -4.5,-37 2,-42.6 6.1,-75.8 2.2,-17.1 3.2,-47.6 -17.7,-53.2 z"
   id="path38" /><path
   class="st12"
   d="m 232.3,140.1 c -37,13.7 -53.1,48.3 -53.1,85.7 0,15.2 -1.9,20 -4,32.7 -1.4,8.4 -17.8,25.9 -18,29.8 -1,23.6 -14.8,43.2 -14.8,75.8 0,14.5 1.3,7.9 3.3,6.5 8.9,-5.8 20.1,-22.6 21,-33.1 0.9,-11.6 7.8,-23.8 9.3,-32 5.4,-28.4 39.7,-66.3 39.1,-80.5 -1,-22.8 23.4,-69.3 41.4,-77.3 18.9,-13 -21.2,-8.7 -24.2,-7.6 z"
   id="path40" /><polygon
   class="st10"
   points="991.3,845.3 910.1,980 1400,980 1400,681.7 1326.2,728.1 1253.6,639.1 1105.2,826.4 "
   id="polygon42" /><polygon
   class="st8"
   points="1303,942.1 1264.7,917.9 1203,917.9 1220.2,980 1400,980 1400,681.7 1329.1,758.4 1278,756.2 1267,853.1 "
   id="polygon44" /><polygon
   class="st12"
   points="1137.6,980 1125.7,888.2 1192.7,882.4 1253.6,639.1 1105.2,826.4 991.3,845.3 910.1,980 "
   id="polygon46" /><polygon
   class="st10"
   points="205.5,765.2 132.1,631.9 0,584.6 0,980 422.5,980 383.5,914 330.3,898.4 286.8,779 "
   id="polygon326" /><polygon
   class="st12"
   points="205.5,765.2 132.1,631.9 56.4,604.8 106.1,665.6 114.7,775.7 177.3,880.8 114.5,980 114.5,980 422.5,980 383.5,914 330.3,898.4 286.8,779 "
   id="polygon328" /><polygon
   class="st8"
   points="0,979.8 93.4,980 78.5,786.2 46,742.9 0,630.4 "
   id="polygon330" /><path
   class="st10"
   d="M 59.9,188.3 C 57,174 39,163.6 26,164 c -8.5,0.3 -5.4,17.5 -9.2,26.6 -4.8,11.7 -2.6,63.2 1.6,73.4 2.7,6.4 3.3,51.4 2.5,60.2 -1.5,17.2 29.2,6.3 33.8,-1.4 11.3,-19.1 3.9,-54.1 -0.3,-74.4 -4.6,-22.8 10.5,-35.6 5.5,-60.1 z"
   id="path332" /><path
   class="st9"
   d="M 82.8,77.2 C 72.4,64 26.7,36.2 12.7,35.1 c -9.1,50.7 21.5,65.4 56.6,93 2.9,2.3 56.2,-1.2 59.2,-5.5 C 143.3,101.6 91.3,88 82.8,77.2 Z"
   id="path334" /><path
   class="st12"
   d="m 322.4,221.5 c -12.7,-59.7 -18.3,-37.3 -18.3,6.9 0,12.7 2.7,36.6 2.3,46.1 -0.5,13.1 8,117.2 10.9,117.2 0,-27.3 8.7,-71.4 7.8,-92.2 -1.3,-31.5 2.3,-54.5 -2.7,-78 z"
   id="path336" /><path
   class="st12"
   d="m 418.1,276.4 c -2.5,-31.5 -0.9,-54.5 -5.9,-78 -12.7,-59.7 -15.9,-37.3 -13.8,6.9 0.6,12.7 3.8,36.6 4,46.1 0.2,13.1 11.8,117.2 14,117.2 -1.2,-27.2 3.4,-71.4 1.7,-92.2 z"
   id="path338" /><path
   class="st10"
   d="m 250.2,332.8 c -46.1,25.1 -22.7,92 -34,109.8 -23.5,37.1 12.9,75.5 6.2,91.6 -6.8,16.4 -6,55.6 -6,75 0,12 2.7,34.4 2.3,42.2 -0.6,15.1 14.3,30.7 25.8,27.1 4.9,-1.5 0.8,-37.5 0.1,-43.6 -1.7,-13.8 -1.6,-17.1 -1.6,-31.3 0,-13.7 6.5,-85.9 10.4,-95.3 2.6,-6.2 2.9,-57.1 1.4,-64.1 -3.1,-15.4 6.1,-96 12.4,-106.2 2.1,-3.4 2.1,-15.6 -17,-5.2 z"
   id="path340" /><path
   class="st10"
   d="m 1215.4,417.7 c 7.7,-32.8 -7.1,-77.2 -33.8,-97.6 -5.6,-4.3 -9.2,19.5 -10.1,27 -3.8,30.7 0.3,62.6 -3.3,88.3 -7,51.2 11.8,129.8 11.8,184.9 0,24.3 -8.9,75.4 5.2,91.9 2.7,3.2 17.9,-24.7 20,-28.2 10.5,-17.3 12.3,-62.7 12.3,-84.3 0,-19.7 -10.3,-51.6 -10.9,-71.1 -0.1,-4.5 8.7,-110.1 8.8,-110.9 z"
   id="path342" />
</svg>
