<?xml version="1.0" encoding="UTF-8" standalone="no"?>
<!-- Generator: Adobe Illustrator 19.0.0, SVG Export Plug-In . SVG Version: 6.00 Build 0)  -->

<svg
   version="1.1"
   id="Layer_1"
   x="0px"
   y="0px"
   viewBox="0 0 200 200"
   xml:space="preserve"
   sodipodi:docname="espadasCrudas.svg"
   width="200"
   height="200"
   inkscape:version="1.1.2 (b8e25be833, 2022-02-05)"
   xmlns:inkscape="http://www.inkscape.org/namespaces/inkscape"
   xmlns:sodipodi="http://sodipodi.sourceforge.net/DTD/sodipodi-0.dtd"
   xmlns="http://www.w3.org/2000/svg"
   xmlns:svg="http://www.w3.org/2000/svg"><defs
   id="defs49" /><sodipodi:namedview
   id="namedview47"
   pagecolor="#505050"
   bordercolor="#eeeeee"
   borderopacity="1"
   inkscape:pageshadow="0"
   inkscape:pageopacity="0"
   inkscape:pagecheckerboard="0"
   showgrid="false"
   inkscape:zoom="2.5235213"
   inkscape:cx="105.40827"
   inkscape:cy="132.75101"
   inkscape:window-width="1920"
   inkscape:window-height="986"
   inkscape:window-x="-11"
   inkscape:window-y="-11"
   inkscape:window-maximized="1"
   inkscape:current-layer="Layer_1" />
<g
   id="g14"
   transform="matrix(0.38868459,0,0,0.38869085,0.50000019,0.49844627)">
	<g
   id="g12">
		<g
   id="g10">
			<path
   d="m 125.491,267.021 c -3.337,-3.337 -8.73,-3.337 -12.066,0 -25.301,25.293 -25.813,53.094 -1.707,78.507 l -53.896,53.888 -8.866,-8.798 c -6.647,-6.656 -17.468,-6.673 -24.098,-0.043 L 4.992,410.449 c -6.656,6.647 -6.656,17.476 0,24.132 l 72.397,72.405 c 3.328,3.328 7.706,4.992 12.075,4.992 4.369,0 8.747,-1.664 12.066,-4.992 l 19.866,-19.857 c 3.482,-3.482 5.163,-8.346 4.625,-13.346 -0.495,-4.582 -2.756,-8.994 -6.536,-12.774 l -6.912,-6.878 53.837,-53.828 c 25.762,24.525 52.873,23.927 78.549,-1.749 3.337,-3.337 3.337,-8.73 0,-12.066 z m 51.158,119.424 -4.301,-4.241 c -3.336,-3.285 -8.695,-3.268 -12.023,0.043 L 100.489,442.091 87.04,428.702 c -3.336,-3.328 -8.73,-3.311 -12.075,0.026 -3.328,3.337 -3.311,8.738 0.026,12.066 l 32.435,32.299 c 1.263,1.254 1.587,2.236 1.86,2.014 L 89.455,494.921 17.058,422.516 36.915,402.71 51.84,417.524 c 3.328,3.302 8.721,3.294 12.041,-0.026 l 59.827,-59.836 15.317,15.352 c 3.337,3.337 8.73,3.337 12.066,0.017 3.345,-3.328 3.345,-8.738 0.017,-12.075 l -25.617,-25.668 c -9.591,-9.6 -14.473,-19.021 -14.498,-28.023 -0.017,-7.049 2.935,-14.362 8.798,-21.803 l 106.752,106.743 c -16.939,13.474 -32.572,11.58 -49.894,-5.76 z"
   id="path2" />
			<path
   d="M 287.625,176.687 430.933,33.378 476.706,23.206 305.425,194.487 c -3.337,3.337 -3.337,8.73 0,12.066 1.664,1.664 3.849,2.5 6.033,2.5 2.185,0 4.369,-0.836 6.033,-2.5 L 488.764,35.281 478.601,81.045 335.292,224.354 c -3.337,3.337 -3.337,8.73 0,12.066 1.664,1.664 3.849,2.5 6.033,2.5 2.185,0 4.369,-0.836 6.033,-2.5 L 492.425,91.354 c 1.152,-1.143 1.946,-2.594 2.304,-4.181 l 17.067,-76.8 c 0.111,-0.521 0.12,-1.05 0.137,-1.57 0.009,-0.128 0.043,-0.256 0.043,-0.384 -0.017,-0.973 -0.213,-1.911 -0.546,-2.816 -0.077,-0.205 -0.171,-0.393 -0.265,-0.589 -0.418,-0.922 -0.939,-1.792 -1.673,-2.526 -0.734,-0.734 -1.604,-1.254 -2.517,-1.673 -0.205,-0.094 -0.393,-0.188 -0.597,-0.265 -0.904,-0.324 -1.843,-0.529 -2.807,-0.546 -0.145,0 -0.273,0.034 -0.418,0.043 -0.521,0.017 -1.033,0.034 -1.544,0.145 l -76.8,17.067 c -1.579,0.35 -3.029,1.143 -4.181,2.295 l -145.07,145.067 c -3.337,3.337 -3.337,8.73 0,12.066 3.337,3.336 8.73,3.336 12.067,0 z"
   id="path4" />
			<path
   d="m 506.991,410.449 -19.857,-19.866 c -6.007,-6.016 -16.922,-7.296 -26.129,1.92 l -6.861,6.895 -53.837,-53.828 c 24.516,-25.754 23.936,-52.864 -1.749,-78.549 -3.337,-3.337 -8.73,-3.337 -12.066,0 L 267.025,386.487 c -3.337,3.337 -3.337,8.73 0,12.066 25.301,25.301 53.111,25.813 78.507,1.707 l 53.897,53.897 -8.806,8.866 c -6.656,6.656 -6.673,17.468 -0.034,24.098 l 19.866,19.866 c 3.319,3.328 7.697,4.992 12.066,4.992 4.369,0 8.747,-1.664 12.075,-4.992 l 72.397,-72.397 c 6.654,-6.656 6.654,-17.493 -0.002,-24.141 z m -84.472,84.472 -19.806,-19.857 14.814,-14.925 c 3.302,-3.337 3.294,-8.721 -0.026,-12.041 l -59.836,-59.836 15.352,-15.309 c 3.345,-3.328 3.345,-8.73 0.017,-12.075 -3.336,-3.328 -8.738,-3.337 -12.066,-0.009 l -25.677,25.617 c -9.6,9.591 -19.029,14.473 -28.023,14.498 h -0.077 c -7.023,0 -14.31,-2.953 -21.726,-8.806 L 392.208,285.443 c 13.483,16.922 11.563,32.555 -5.769,49.886 l -4.233,4.301 c -3.285,3.345 -3.268,8.713 0.051,12.023 l 59.836,59.836 -13.397,13.449 c -3.319,3.336 -3.302,8.747 0.026,12.066 3.354,3.337 8.747,3.319 12.075,-0.026 l 32.29,-32.427 c 1.263,-1.254 2.219,-1.587 2.022,-1.86 l 19.814,19.831 z"
   id="path6" />
			<path
   d="m 281.591,349.854 c 2.185,0 4.369,-0.836 6.033,-2.5 3.336,-3.337 3.336,-8.73 0,-12.066 L 33.382,81.045 23.219,35.281 305.425,317.487 c 1.664,1.664 3.849,2.5 6.033,2.5 2.185,0 4.369,-0.836 6.033,-2.5 3.337,-3.337 3.337,-8.73 0,-12.066 L 35.277,23.206 81.05,33.378 335.292,287.62 c 3.337,3.337 8.73,3.337 12.066,0 3.336,-3.337 3.336,-8.73 0,-12.066 l -256,-256 C 90.206,18.402 88.755,17.608 87.177,17.259 L 10.377,0.192 C 9.865,0.081 9.353,0.064 8.832,0.047 8.687,0.038 8.559,0.004 8.414,0.004 7.441,0.021 6.511,0.226 5.606,0.55 5.402,0.627 5.214,0.721 5.018,0.815 4.096,1.225 3.226,1.754 2.492,2.488 1.758,3.221 1.229,4.092 0.819,5.013 0.725,5.21 0.631,5.397 0.555,5.602 0.222,6.507 0.026,7.445 0.009,8.418 c 0,0.128 0.034,0.256 0.043,0.384 0.017,0.521 0.026,1.05 0.137,1.57 l 17.067,76.8 c 0.358,1.587 1.152,3.038 2.304,4.181 l 164.634,164.634 -19.567,19.567 c -3.337,3.337 -3.337,8.73 0,12.066 1.664,1.664 3.849,2.5 6.033,2.5 2.184,0 4.369,-0.836 6.033,-2.5 l 19.567,-19.567 17.8,17.801 -19.567,19.567 c -3.337,3.336 -3.337,8.73 0,12.066 1.664,1.664 3.849,2.5 6.033,2.5 2.185,0 4.369,-0.836 6.033,-2.5 l 19.567,-19.567 17.801,17.801 -19.567,19.567 c -3.337,3.337 -3.337,8.73 0,12.066 1.664,1.664 3.849,2.5 6.033,2.5 2.184,0 4.369,-0.836 6.033,-2.5 l 19.567,-19.567 19.567,19.567 c 1.662,1.664 3.847,2.5 6.031,2.5 z"
   id="path8" />
		</g>
	</g>
</g>
<g
   id="g16">
</g>
<g
   id="g18">
</g>
<g
   id="g20">
</g>
<g
   id="g22">
</g>
<g
   id="g24">
</g>
<g
   id="g26">
</g>
<g
   id="g28">
</g>
<g
   id="g30">
</g>
<g
   id="g32">
</g>
<g
   id="g34">
</g>
<g
   id="g36">
</g>
<g
   id="g38">
</g>
<g
   id="g40">
</g>
<g
   id="g42">
</g>
<g
   id="g44">
</g>
</svg>
