<?xml version="1.0" encoding="UTF-8" standalone="no"?>
<svg
   width="256"
   height="256"
   viewBox="0 0 67.733332 67.733335"
   version="1.1"
   id="svg5"
   inkscape:version="1.1.2 (b8e25be833, 2022-02-05)"
   sodipodi:docname="fundo.svg"
   xmlns:inkscape="http://www.inkscape.org/namespaces/inkscape"
   xmlns:sodipodi="http://sodipodi.sourceforge.net/DTD/sodipodi-0.dtd"
   xmlns="http://www.w3.org/2000/svg"
   xmlns:svg="http://www.w3.org/2000/svg">
  <sodipodi:namedview
     id="namedview7"
     pagecolor="#505050"
     bordercolor="#eeeeee"
     borderopacity="1"
     inkscape:pageshadow="0"
     inkscape:pageopacity="0"
     inkscape:pagecheckerboard="0"
     inkscape:document-units="mm"
     showgrid="false"
     units="px"
     width="256px"
     inkscape:zoom="2.3019641"
     inkscape:rotation="1"
     inkscape:cx="172.83368"
     inkscape:cy="57.158354"
     inkscape:window-width="2304"
     inkscape:window-height="1202"
     inkscape:window-x="2293"
     inkscape:window-y="-11"
     inkscape:window-maximized="1"
     inkscape:current-layer="layer1" />
  <defs
     id="defs2" />
  <g
     inkscape:label="Camada 1"
     inkscape:groupmode="layer"
     id="layer1">
    <path
       style="fill:#a44e00;fill-opacity:1;stroke-width:1.00157"
       id="path18080"
       sodipodi:type="arc"
       sodipodi:cx="33.857731"
       sodipodi:cy="32.319977"
       sodipodi:rx="49.82156"
       sodipodi:ry="46.374695"
       sodipodi:start="0"
       sodipodi:end="6.2830282"
       sodipodi:arc-type="slice"
       d="M 83.679291,32.319977 A 49.82156,46.374695 0 0 1 33.859688,78.694672 49.82156,46.374695 0 0 1 -15.963829,32.32362 49.82156,46.374695 0 0 1 33.85186,-14.054718 49.82156,46.374695 0 0 1 83.67929,32.312691 l -49.821559,0.0073 z" />
    <path
       style="fill:#8e4300;fill-opacity:1;stroke-width:1.00157"
       id="path19094"
       sodipodi:type="arc"
       sodipodi:cx="33.400867"
       sodipodi:cy="31.798647"
       sodipodi:rx="44.219063"
       sodipodi:ry="38.246815"
       sodipodi:start="0"
       sodipodi:end="6.2830282"
       sodipodi:arc-type="slice"
       d="M 77.61993,31.798647 A 44.219063,38.246815 0 0 1 33.402604,70.045462 44.219063,38.246815 0 0 1 -10.818195,31.801651 44.219063,38.246815 0 0 1 33.395658,-6.4481675 44.219063,38.246815 0 0 1 77.61993,31.792639 l -44.219063,0.006 z" />
    <path
       style="fill:#713600;fill-opacity:1;stroke-width:1.00157"
       id="path19360"
       sodipodi:type="arc"
       sodipodi:cx="33.400867"
       sodipodi:cy="29.995171"
       sodipodi:rx="39.130558"
       sodipodi:ry="32.251751"
       sodipodi:start="0"
       sodipodi:end="6.2830282"
       sodipodi:arc-type="slice"
       d="M 72.531425,29.995171 A 39.130558,32.251751 0 0 1 33.402404,62.246922 39.130558,32.251751 0 0 1 -5.7296904,29.997704 39.130558,32.251751 0 0 1 33.396258,-2.2565801 39.130558,32.251751 0 0 1 72.531425,29.990105 l -39.130558,0.0051 z" />
    <path
       style="fill:#5d2c00;fill-opacity:1;stroke-width:1.00157"
       id="path19692"
       sodipodi:type="arc"
       sodipodi:cx="33.400867"
       sodipodi:cy="29.995171"
       sodipodi:rx="30.785271"
       sodipodi:ry="28.961349"
       sodipodi:start="0"
       sodipodi:end="6.2830282"
       sodipodi:arc-type="slice"
       d="M 64.186138,29.995171 A 30.785271,28.961349 0 0 1 33.402076,58.95652 30.785271,28.961349 0 0 1 2.6155969,29.997445 30.785271,28.961349 0 0 1 33.397241,1.0338213 30.785271,28.961349 0 0 1 64.186138,29.990621 l -30.785271,0.0045 z" />
    <path
       style="fill:#482200;fill-opacity:1;stroke-width:1.00157"
       id="path19914"
       sodipodi:type="arc"
       sodipodi:cx="33.400867"
       sodipodi:cy="29.995171"
       sodipodi:rx="24.223848"
       sodipodi:ry="24.522533"
       sodipodi:start="0"
       sodipodi:end="6.2830282"
       sodipodi:arc-type="slice"
       d="M 57.624716,29.995171 A 24.223848,24.522533 0 0 1 33.401819,54.517704 24.223848,24.522533 0 0 1 9.1770192,29.997097 24.223848,24.522533 0 0 1 33.398014,5.4726373 24.223848,24.522533 0 0 1 57.624716,29.991319 l -24.223849,0.0039 z" />
    <path
       style="fill:#351901;fill-opacity:1;stroke-width:1.00157"
       id="path20114"
       sodipodi:type="arc"
       sodipodi:cx="35.453972"
       sodipodi:cy="23.790051"
       sodipodi:rx="16.790701"
       sodipodi:ry="16.453098"
       sodipodi:start="0"
       sodipodi:end="6.2830282"
       sodipodi:arc-type="slice"
       d="M 52.244673,23.790051 A 16.790701,16.453098 0 0 1 35.454631,40.243149 16.790701,16.453098 0 0 1 18.663271,23.791343 16.790701,16.453098 0 0 1 35.451994,7.3369523 16.790701,16.453098 0 0 1 52.244673,23.787466 l -16.790701,0.0026 z" />
    <path
       style="fill:#221000;fill-opacity:1;stroke-width:1.00157"
       id="path20336"
       sodipodi:type="arc"
       sodipodi:cx="36.532677"
       sodipodi:cy="20.178602"
       sodipodi:rx="12.305658"
       sodipodi:ry="11.731265"
       sodipodi:start="0"
       sodipodi:end="6.2830282"
       sodipodi:arc-type="slice"
       d="M 48.838335,20.178602 A 12.305658,11.731265 0 0 1 36.53316,31.909867 12.305658,11.731265 0 0 1 24.227018,20.179524 12.305658,11.731265 0 0 1 36.531227,8.4473372 12.305658,11.731265 0 0 1 48.838335,20.176759 l -12.305658,0.0018 z" />
    <path
       style="fill:#0b0500;fill-opacity:1;stroke-width:1.00157"
       id="path20558"
       sodipodi:type="arc"
       sodipodi:cx="37.283672"
       sodipodi:cy="20.178326"
       sodipodi:rx="11.554664"
       sodipodi:ry="9.9718819"
       sodipodi:start="0"
       sodipodi:end="6.2830282"
       sodipodi:arc-type="slice"
       d="m 48.838336,20.178326 a 11.554664,9.9718819 0 0 1 -11.55421,9.971882 11.554664,9.9718819 0 0 1 -11.555117,-9.971099 11.554664,9.9718819 0 0 1 11.553302,-9.972665 11.554664,9.9718819 0 0 1 11.556025,9.970315 l -11.554664,0.0016 z" />
    <path
       style="fill:#000000;fill-opacity:1;stroke-width:1.00157"
       id="path20758"
       sodipodi:type="arc"
       sodipodi:cx="37.283672"
       sodipodi:cy="20.178326"
       sodipodi:rx="8.0408497"
       sodipodi:ry="6.2396812"
       sodipodi:start="0"
       sodipodi:end="6.2830282"
       sodipodi:arc-type="slice"
       d="m 45.324522,20.178326 a 8.0408497,6.2396812 0 0 1 -8.040534,6.239681 8.0408497,6.2396812 0 0 1 -8.041165,-6.239191 8.0408497,6.2396812 0 0 1 8.039902,-6.240172 8.0408497,6.2396812 0 0 1 8.041797,6.238702 l -8.04085,9.8e-4 z" />
  </g>
</svg>
