<?xml version="1.0" encoding="UTF-8" standalone="no"?>
<!-- Created with Inkscape (http://www.inkscape.org/) -->

<svg
   width="200"
   height="200"
   viewBox="0 0 52.916665 52.916668"
   version="1.1"
   id="svg5"
   inkscape:version="1.1.2 (b8e25be833, 2022-02-05)"
   sodipodi:docname="rest.svg"
   xmlns:inkscape="http://www.inkscape.org/namespaces/inkscape"
   xmlns:sodipodi="http://sodipodi.sourceforge.net/DTD/sodipodi-0.dtd"
   xmlns="http://www.w3.org/2000/svg"
   xmlns:svg="http://www.w3.org/2000/svg">
  <sodipodi:namedview
     id="namedview7"
     pagecolor="#505050"
     bordercolor="#eeeeee"
     borderopacity="1"
     inkscape:pageshadow="0"
     inkscape:pageopacity="0"
     inkscape:pagecheckerboard="0"
     inkscape:document-units="mm"
     showgrid="false"
     units="px"
     inkscape:zoom="2.3019641"
     inkscape:cx="200.26377"
     inkscape:cy="95.13615"
     inkscape:window-width="2304"
     inkscape:window-height="1202"
     inkscape:window-x="2293"
     inkscape:window-y="-11"
     inkscape:window-maximized="1"
     inkscape:current-layer="layer1" />
  <defs
     id="defs2" />
  <g
     inkscape:label="Camada 1"
     inkscape:groupmode="layer"
     id="layer1">
    <path
       style="fill:#000000;stroke-width:0.0693803"
       d="M 2.8104793,49.816426 C 2.6190773,49.554186 0.50283229,47.531126 1.6690407e-5,45.391416 0.72103489,43.796296 1.1371098,43.277556 2.3191676,42.919916 c 1.7441338,-1.11805 3.554498,-1.30068 5.6919038,-1.71048 1.4723012,-1.01995 2.2494686,-2.192 2.9620476,-3.236526 0.744249,-1.320238 1.982995,-1.817694 3.239859,-2.61338 0.845155,-0.473916 0.613305,-0.532178 0.750029,-1.512714 0.0873,-0.626107 0.218221,-1.388146 0.290933,-1.69342 0.171721,-0.720967 0.171139,-0.914636 -0.0016,-0.534011 l -0.135499,0.298554 c -1.098864,-0.118238 -0.697138,-0.498603 -0.822769,-1.26823 -0.222055,0.783145 -0.03883,1.854748 -0.581631,2.479573 -0.819026,0.525963 -1.090404,-0.01188 -0.930096,-0.783182 0.06836,-0.328906 0.13938,-0.647316 0.15782,-0.707575 0.01843,-0.06026 -0.04141,-0.02244 -0.132995,0.08405 -0.151614,0.176281 -0.194,0.189219 -0.473445,0.144536 -0.347585,-0.05558 -0.689387,-0.343119 -0.689387,-0.57994 0,-0.09726 -0.281344,-0.427823 -0.816488,-0.959319 -1.1094564,-1.101895 -1.2080734,-1.336924 -0.8877894,-2.11584 l 0.1657004,-0.402975 -0.1637174,-0.06225 c -0.09005,-0.03423 -0.215245,-0.14088 -0.278221,-0.236993 -0.108913,-0.166222 -0.104096,-0.205771 0.09872,-0.810503 l 0.213221,-0.635757 c -0.143965,-0.181767 -0.287926,-0.363536 -0.431888,-0.545305 0.421075,-0.600986 1.7342464,-1.422812 1.8659784,-2.066229 0.117907,-0.65137 0.326198,-0.90642 0.742008,-0.908586 1.229989,-0.570651 2.740997,-1.452058 3.521273,-2.122294 1.750413,-1.507297 3.417462,-2.626074 4.608934,-3.093118 1.965588,-0.419424 3.122364,-0.03542 4.774201,0.488795 1.166651,-0.711309 2.428209,-0.752179 3.043211,-2.00249 -0.153078,-1.819259 -0.706101,-4.597076 -1.60772,-5.707497 -0.51784,1.593282 -0.484696,-0.05618 -0.484595,-0.623461 -0.141719,-1.603825 0.433021,-2.955105 0.875132,-4.470619 0.821105,-0.9662994 1.255709,-1.5731754 2.230975,-1.9012764 l 0.818168,-0.273693 4.365549,0.334679 c 0.971074,0.59248 0.958994,0.658169 2.127456,0.583561 0.547064,-0.03493 1.00975,-0.05026 1.028189,-0.03408 0.01844,0.01619 -0.09983,0.140209 -0.262825,0.275601 -0.27792,0.230856 -0.620616,0.7563884 -0.543514,0.8334914 0.324622,-0.0229 0.559459,-0.20835 0.896831,-0.256306 0.739928,0.897173 0.926519,2.728149 0.985842,3.672572 0.655253,1.194224 -0.745944,2.239188 -0.157402,2.72388 1.070009,0.61195 1.762338,0.854002 2.906717,1.315542 0.824806,-0.505511 1.789148,-0.914231 2.671331,-1.051883 2.492408,-0.111869 4.37924,2.135311 6.076591,4.176468 1.714989,1.918001 1.090654,4.117823 2.102159,5.791888 0.594115,0.97859 0.715932,1.598154 0.775224,3.94279 0.04498,1.77889 -0.01757,3.002807 -0.324019,6.339962 -0.228676,2.490252 -0.340722,3.284259 -0.59839,4.240545 -0.292831,1.086775 -1.022588,3.014553 -1.61566,4.268025 -0.546364,1.15475 -0.560386,1.19778 -0.700482,2.14966 -0.157214,1.06821 -0.392435,1.77728 -0.989658,2.98336 -1.340219,2.70655 -2.347814,3.21439 -5.497616,2.77087 -0.381593,-0.0537 -1.38067,-0.14555 -2.220171,-0.20405 -1.984063,-0.13825 -3.022453,-0.27257 -4.034023,-0.52181 -1.441608,-0.35521 -2.413818,-0.95596 -4.213012,-2.60331 -1.142397,-1.04599 -3.17237,-3.47355 -5.068384,-6.061082 -0.760093,-1.037318 -1.409158,-1.902817 -1.442361,-1.923341 -1.427498,0.804712 -3.595101,1.634903 -4.74502,2.556693 -0.285233,0.25044 -0.307323,0.31188 -1.137981,3.16509 -0.162394,0.55781 -0.09976,0.5212 -0.658996,0.3851 -0.592331,0.20792 -0.0258,1.69182 0.174629,2.08894 0.420048,0.83223 0.47231,1.18497 0.347391,2.34465 -0.116696,0.54506 0.174979,0.76365 -0.373341,0.83721 -1.925224,0.70153 -4.58687,-0.0145 -6.230114,0.18375 -2.050241,0.4935 -6.8108434,1.74857 -9.6121408,1.93268 -0.023915,-0.003 -0.5430392,-0.12102 -1.1535883,-0.26249 z M 16.503396,26.782427 c 0.155942,-0.698251 0.269378,-1.283695 0.252082,-1.300991 -0.06804,-0.06804 -0.880347,-0.285196 -0.906468,-0.24233 -0.09532,0.156426 0.247693,2.936027 0.349727,2.833992 0.01162,-0.01161 0.148719,-0.592424 0.304659,-1.290671 z m 17.481382,-5.938061 c -0.300651,0.173829 -0.734589,0.211993 -1.03634,0.373411 1.452968,1.013469 2.716728,2.965102 4.003799,3.863199 -1.04043,-1.396977 -1.823503,-3.060892 -2.967459,-4.23661 z m -5.996273,1.577737 c -0.0512,-0.0512 -1.496764,0.13753 -1.496764,0.195414 0,0.134122 0.304047,0.828644 0.362762,0.828644 0.41131,-0.326022 0.820557,-0.586212 1.134002,-1.024058 z"
       id="path908"
       sodipodi:nodetypes="cccccccscccccsssssscssscccccccccccccccssccccccccsssssssssssccsccccccccssssscccccscc" />
  </g>
</svg>
