<?xml version="1.0" encoding="UTF-8" standalone="no"?>
<svg
   class="inimigo_svg"
   viewBox="0 0 67.733332 67.733335"
   version="1.1"
   id="svg5"
   inkscape:version="1.1.2 (b8e25be833, 2022-02-05)"
   sodipodi:docname="slime.svg"
   xmlns:inkscape="http://www.inkscape.org/namespaces/inkscape"
   xmlns:sodipodi="http://sodipodi.sourceforge.net/DTD/sodipodi-0.dtd"
   xmlns:xlink="http://www.w3.org/1999/xlink"
   xmlns="http://www.w3.org/2000/svg"
   xmlns:svg="http://www.w3.org/2000/svg">
  <sodipodi:namedview
     id="namedview849"
     pagecolor="#505050"
     bordercolor="#eeeeee"
     borderopacity="1"
     inkscape:pageshadow="0"
     inkscape:pageopacity="0"
     inkscape:pagecheckerboard="0"
     showgrid="false"
     inkscape:zoom="19.074802"
     inkscape:cx="40.734368"
     inkscape:cy="63.224772"
     inkscape:window-width="1920"
     inkscape:window-height="986"
     inkscape:window-x="-11"
     inkscape:window-y="-11"
     inkscape:window-maximized="1"
     inkscape:current-layer="layer1" />
  <defs
     id="defs2">
    <linearGradient
       inkscape:collect="always"
       id="linearGradient8139">
      <stop
         style="stop-color:#000000;stop-opacity:.3;"
         offset="0"
         id="stop8135" />
      <stop
         style="stop-color:#000000;stop-opacity:0;"
         offset="1"
         id="stop8137" />
    </linearGradient>
    <radialGradient
       inkscape:collect="always"
       xlink:href="#linearGradient8139"
       id="radialGradient8141"
       cx="33.649296"
       cy="55.303249"
       fx="33.649296"
       fy="55.303249"
       r="33.762459"
       gradientTransform="matrix(1,0,0,0.04796481,0,52.65064)"
       gradientUnits="userSpaceOnUse" />
  </defs>
  <g
     inkscape:label="Camada 1"
     inkscape:groupmode="layer"
     id="layer1"><path
   id="path8133"
   sodipodi:type="arc"
   sodipodi:cx="33.649296"
   sodipodi:cy="55.303249"
   sodipodi:rx="33.762459"
   sodipodi:ry="1.6194099"
   sodipodi:start="0"
   sodipodi:end="6.2830324"
   sodipodi:arc-type="slice"
   d="m 67.411755,55.303249 a 33.762459,1.6194099 0 0 1 -33.761169,1.61941 33.762459,1.6194099 0 0 1 -33.7637489,-1.619286 33.762459,1.6194099 0 0 1 33.7585869,-1.619534 33.762459,1.6194099 0 0 1 33.76633,1.619163 l -33.762458,2.47e-4 z" />
<path
   class="slime_color"
   d="M 1.7278781,48.367521 C 6.5873815,54.852327 13.114749,55.880506 48.91883,54.119652 84.722904,52.358797 59.58809,20.038332 46.336238,14.67647 33.08438,9.314609 21.961144,16.697761 14.152651,24.60205 6.3441576,32.50634 -3.1316255,41.882717 1.7278781,48.367521 Z"
   id="path6769"
   sodipodi:nodetypes="zszzz" />
[style.fill]=&quot;monsterColor&quot;/&gt;
      
    <ellipse
   fill="#ff0000"
   id="path8245"
   style="stroke:#000000;stroke-opacity:1;fill:#ff0000;fill-opacity:1"
   cx="21.744915"
   cy="35.710499"
   rx="5.0674357"
   ry="4.4644427" />
<path
   style="fill:#4d4d4d;stroke-width:1.00157;fill-opacity:0.54186416"
   id="path1024"
   sodipodi:type="arc"
   sodipodi:cx="32.132603"
   sodipodi:cy="53.705204"
   sodipodi:rx="21.595598"
   sodipodi:ry="1.5149548"
   sodipodi:start="0"
   sodipodi:end="6.2830282"
   sodipodi:arc-type="slice"
   d="m 53.728201,53.705204 a 21.595598,1.5149548 0 0 1 -21.59475,1.514955 21.595598,1.5149548 0 0 1 -21.596446,-1.514836 21.595598,1.5149548 0 0 1 21.593054,-1.515074 21.595598,1.5149548 0 0 1 21.598142,1.514717 l -21.595598,2.38e-4 z"
   transform="rotate(-1.4028343)" />
<path
   style="fill:#fffb9d;stroke:none;stroke-width:0.264583px;stroke-linecap:butt;stroke-linejoin:miter;stroke-opacity:1;fill-opacity:0.79778832"
   d="m 36.229245,14.664445 c 4.95791,-0.03976 5.895811,1.616571 5.582333,2.417291 -0.313479,0.80072 -2.581409,-0.118384 -5.601783,-0.2013 -2.870746,-0.07881 -4.704972,1.176855 -5.515488,0.302197 -0.810517,-0.874659 1.459306,-2.132807 5.534938,-2.518188 z"
   id="path944"
   sodipodi:nodetypes="csssc" />
<g
   id="g1213"
   transform="translate(-31.843055,0.85877063)">
  <path
     id="path8133-4"
     sodipodi:type="arc"
     sodipodi:cx="56.9748"
     sodipodi:cy="65.169418"
     sodipodi:rx="7.8524904"
     sodipodi:ry="0.37664321"
     sodipodi:start="0"
     sodipodi:end="6.2830324"
     sodipodi:arc-type="slice"
     d="m 64.827291,65.169418 a 7.8524904,0.37664321 0 0 1 -7.852191,0.376644 7.8524904,0.37664321 0 0 1 -7.85279,-0.376615 7.8524904,0.37664321 0 0 1 7.85159,-0.376672 7.8524904,0.37664321 0 0 1 7.85339,0.376586 l -7.85249,5.7e-5 z" />
  <ellipse
     style="fill:#000000;fill-opacity:1;stroke:#000000;stroke-width:1.88976"
     id="path930"
     cx="56.767479"
     cy="61.366634"
     rx="6.0813212"
     ry="2.7890728" />
</g>
<g
   id="g1219"
   transform="matrix(0.57600775,0,0,0.57600775,-24.205754,24.43581)">
  <path
     id="path1215"
     sodipodi:type="arc"
     sodipodi:cx="56.9748"
     sodipodi:cy="65.169418"
     sodipodi:rx="7.8524904"
     sodipodi:ry="0.37664321"
     sodipodi:start="0"
     sodipodi:end="6.2830324"
     sodipodi:arc-type="slice"
     d="m 64.827291,65.169418 a 7.8524904,0.37664321 0 0 1 -7.852191,0.376644 7.8524904,0.37664321 0 0 1 -7.85279,-0.376615 7.8524904,0.37664321 0 0 1 7.85159,-0.376672 7.8524904,0.37664321 0 0 1 7.85339,0.376586 l -7.85249,5.7e-5 z" />
  <ellipse
     style="fill:#000000;fill-opacity:1;stroke:#000000;stroke-width:1.88976"
     id="ellipse1217"
     cx="56.767479"
     cy="61.366634"
     rx="6.0813212"
     ry="2.7890728" />
</g>
<g
   id="g1225"
   transform="matrix(0.66875606,0,0,0.66875606,-5.1180073,18.671075)">
  <path
     id="path1221"
     sodipodi:type="arc"
     sodipodi:cx="56.9748"
     sodipodi:cy="65.169418"
     sodipodi:rx="7.8524904"
     sodipodi:ry="0.37664321"
     sodipodi:start="0"
     sodipodi:end="6.2830324"
     sodipodi:arc-type="slice"
     d="m 64.827291,65.169418 a 7.8524904,0.37664321 0 0 1 -7.852191,0.376644 7.8524904,0.37664321 0 0 1 -7.85279,-0.376615 7.8524904,0.37664321 0 0 1 7.85159,-0.376672 7.8524904,0.37664321 0 0 1 7.85339,0.376586 l -7.85249,5.7e-5 z" />
  <ellipse
     style="fill:#000000;fill-opacity:1;stroke:#000000;stroke-width:1.88976"
     id="ellipse1223"
     cx="56.767479"
     cy="61.366634"
     rx="6.0813212"
     ry="2.7890728" />
</g>
<g
   id="g1231"
   transform="matrix(0.66875606,0,0,0.66875606,22.77219,22.445688)">
  <path
     id="path1227"
     sodipodi:type="arc"
     sodipodi:cx="56.9748"
     sodipodi:cy="65.169418"
     sodipodi:rx="7.8524904"
     sodipodi:ry="0.37664321"
     sodipodi:start="0"
     sodipodi:end="6.2830324"
     sodipodi:arc-type="slice"
     d="m 64.827291,65.169418 a 7.8524904,0.37664321 0 0 1 -7.852191,0.376644 7.8524904,0.37664321 0 0 1 -7.85279,-0.376615 7.8524904,0.37664321 0 0 1 7.85159,-0.376672 7.8524904,0.37664321 0 0 1 7.85339,0.376586 l -7.85249,5.7e-5 z" />
  <ellipse
     style="fill:#000000;fill-opacity:1;stroke:#000000;stroke-width:1.88976"
     id="ellipse1229"
     cx="56.767479"
     cy="61.366634"
     rx="6.0813212"
     ry="2.7890728" />
</g>
<g
   id="g1237"
   transform="translate(-2.3801018,-2.0770397)">
  <path
     id="path1233"
     sodipodi:type="arc"
     sodipodi:cx="56.9748"
     sodipodi:cy="65.169418"
     sodipodi:rx="7.8524904"
     sodipodi:ry="0.37664321"
     sodipodi:start="0"
     sodipodi:end="6.2830324"
     sodipodi:arc-type="slice"
     d="m 64.827291,65.169418 a 7.8524904,0.37664321 0 0 1 -7.852191,0.376644 7.8524904,0.37664321 0 0 1 -7.85279,-0.376615 7.8524904,0.37664321 0 0 1 7.85159,-0.376672 7.8524904,0.37664321 0 0 1 7.85339,0.376586 l -7.85249,5.7e-5 z" />
  <ellipse
     style="fill:#000000;fill-opacity:1;stroke:#000000;stroke-width:1.88976"
     id="ellipse1235"
     cx="56.767479"
     cy="61.366634"
     rx="6.0813212"
     ry="2.7890728" />
</g>
</g>
</svg>
